<svg width="729" height="495" viewBox="0 0 729 495" fill="none" xmlns="http://www.w3.org/2000/svg">
<path d="M489.57 416.78C454.19 458.96 423.55 466.15 409.05 481.71C383.4 509.08 352 483 362.57 483C382.5 483 385 483.9 385 480.5C385 457.09 385.95 456 382.5 456H362C360.4 456 358.94 454.2 360 453C371.77 439.68 388.46 441.42 405.75 446.02C425.97 439.03 452.51 424.97 466.54 410.67L489.57 416.78Z" fill="#003355"/>
<path d="M376.36 479.2H338.33C336.49 479.2 335 477.71 335 475.87V463.13C335 461.29 336.49 459.8 338.33 459.8H376.36C378.2 459.8 379.69 461.29 379.69 463.13V475.87C379.69 477.7 378.2 479.2 376.36 479.2Z" fill="#003355"/>
<path d="M293.97 25.32C57.9001 -66.54 -79.0099 116.46 50.7701 316.54C147.07 465.03 305.53 481.76 305.63 481.82C332.68 508.87 361.05 483 351 483C325 482 330 488 329.48 458.79C329.48 454.35 330 456 351.38 455.46C361.74 455.46 340.49 432.37 308.95 446.58C305.91 447.95 228.19 430.57 171.5 378.4C66.5401 281.8 38.6601 157.24 103.05 89.8999C154.71 35.8899 319.79 17.5399 454.88 178.36C458.9 183.27 453.87 182.96 474.18 178.32C450.2 129.24 366.38 53.5 293.97 25.32ZM339.97 57.8299C109.14 -45.6601 -55.9999 114 90.0301 325.99C134.99 391.25 191.83 438.57 268.22 466.55C269.68 467.08 269 469.27 267.5 468.87C130.49 432.41 31.4201 298.99 17.1601 208.38C-17.9999 -15 227.42 -37.27 380.27 80.42C389.1 86.68 366.69 69.7999 339.97 57.8299Z" fill="#003355"/>
<path d="M728.04 141.38C726.72 157.8 718.8 205.51 671.93 250.33C628.79 291.58 545.29 313.98 635.41 372.27C679.82 400.99 655.69 457.5 553.94 427.7C545.51 425.23 305.98 363.23 229.04 340.62C229.04 340.62 345 351.98 487.77 359.82C558.91 363.73 533.21 327.66 549.89 315.6C428.04 314.46 358 312 358 312C358 312 438.79 307.64 558.92 303.65C566.34 297.81 573.71 291.52 580.75 284.77C625.21 242.14 705.67 199.48 633.09 207.53C624.78 208.5 620.85 209.58 621 206.8L621.01 203.16C621.09 191.95 621.49 190.68 607.35 193.04C572.41 198.88 573.59 195.63 573.59 206.18C573.59 218.25 577.9 214.26 545.01 219.45C305.45 257.21 140.65 283.12 140.65 283.12C140.65 283.12 213.2 265.7 385.91 229.52C458.16 215.83 430.51 197.91 468.75 189.53C736.45 131.03 728.74 132.83 728.04 141.38Z" fill="#003355"/>
<path d="M199.15 239.35L178 236.58L177.99 227.44C177.99 226.88 177.58 226.41 177.02 226.34L165 224.75V177.24H163C163 182.75 163 198.58 163 224.47C146.18 222.25 150.95 221.19 140.17 227.76C139.82 227.97 139.7 228.37 139.62 228.78C138.99 232 140.47 231.52 133.93 230.56C132.83 230.4 131.71 230.61 130.74 231.16L111 242.48L111.09 278.11C137.83 272.28 144.57 271.49 201 258.8L200.98 241.42C200.98 240.37 200.2 239.48 199.15 239.35ZM126.4 249.1C126.38 250.62 125.91 250.51 117.46 255.44C113.74 257.61 114.44 250.74 114.4 247.4C114.38 245.85 114.89 245.94 123.43 240.99C127.21 238.77 126.42 245.77 126.4 249.1ZM141.43 229.33C143.61 228.07 146.18 226.08 146.18 228.08C146.17 232.87 145.76 232.39 141.02 231.78C141 229.99 140.89 229.65 141.43 229.33ZM153.51 249.06C153.51 252.11 150.19 250.9 141.36 249.82C139.04 249.54 139.61 247.52 139.6 239.38C139.6 236.29 142.95 237.54 151.8 238.7C154.15 239 153.54 241.08 153.51 249.06ZM157.84 230.8C157.84 232.11 156.39 231.59 152.61 231.13C151.55 231 151.85 229.95 151.85 226.63C151.85 225.3 153.27 225.83 157.1 226.34C158.11 226.47 157.85 227.31 157.84 230.8ZM161.46 231.59C161.46 228.83 161.09 226.93 162.43 227.09C166.83 227.66 167.47 227.52 167.47 228.51C167.46 231.18 167.83 233.12 166.48 232.97C162.29 232.44 161.46 232.59 161.46 231.59ZM175.84 252.11C175.84 255.16 172.49 253.95 163.7 252.87C161.34 252.58 161.94 250.45 161.93 242.43C161.93 239.35 165.26 240.57 174.14 241.74C176.56 242.07 175.88 244.36 175.84 252.11ZM176.66 233.32C176.66 234.63 175.26 234.11 171.43 233.65C170.42 233.53 170.68 232.61 170.67 229.16C170.67 227.82 172.15 228.36 175.93 228.86C176.94 229 176.68 229.86 176.66 233.32ZM197.24 254.92C197.24 257.96 193.94 256.76 185.1 255.68C182.68 255.36 183.34 253.06 183.33 245.24C183.33 242.16 186.66 243.38 195.54 244.55C197.96 244.86 197.28 247.19 197.24 254.92Z" fill="#003355"/>
<path d="M612.97 212.65L584.3 216.16C581.7 216.48 579.33 214.63 579.01 212.02L578.85 210.75C578.53 208.15 580.38 205.78 582.99 205.46L611.66 201.95C614.26 201.63 616.63 203.48 616.95 206.09L617.11 207.36C617.42 209.96 615.57 212.33 612.97 212.65Z" fill="#003355"/>
</svg>
