<svg width="238" height="139" viewBox="0 0 238 139" fill="none" xmlns="http://www.w3.org/2000/svg">
<path d="M100.416 31.8549C100.631 31.3055 100.326 30.6889 99.7581 30.5262L90.9274 27.9929C90.5047 27.8717 90.0532 28.0409 89.8147 28.4098L86.6172 33.3577C86.2393 33.9425 86.5606 34.7266 87.2405 34.879L97.4295 37.1636C97.9102 37.2714 98.3969 37.0128 98.5764 36.5542L100.416 31.8549Z" fill="#072D46"/>
<path d="M127.583 37.9458C127.798 37.3964 127.493 36.7801 126.926 36.6173L118.095 34.0841C117.673 33.9629 117.221 34.132 116.983 34.5008L113.784 39.4485C113.406 40.0332 113.727 40.8174 114.407 40.9699L124.598 43.2551C125.079 43.3629 125.566 43.1041 125.745 42.6454L127.583 37.9458Z" fill="#072D46"/>
<path d="M154.755 44.0388C154.97 43.4894 154.665 42.8728 154.097 42.71L145.266 40.1767C144.844 40.0555 144.392 40.2246 144.154 40.5935L140.955 45.5413C140.577 46.126 140.899 46.9102 141.579 47.0626L151.769 49.3474C152.249 49.4552 152.736 49.1966 152.915 48.7381L154.755 44.0388Z" fill="#072D46"/>
<path d="M181.922 50.131C182.137 49.5816 181.832 48.9651 181.265 48.8023L172.433 46.2689C172.011 46.1476 171.559 46.3169 171.32 46.686L168.125 51.6342C167.747 52.219 168.068 53.0029 168.748 53.1553L178.936 55.4397C179.417 55.5475 179.904 55.2889 180.083 54.8303L181.922 50.131Z" fill="#072D46"/>
<path d="M180.129 76.9776L174.759 75.7734L175.392 72.913L180.763 74.1172L180.129 76.9776ZM179.038 81.9037L173.668 80.6995L174.301 77.839L179.672 79.0432L179.038 81.9037ZM177.947 86.8324L172.576 85.6282L173.21 82.7678L178.58 83.972L177.947 86.8324ZM176.855 91.7611L171.485 90.557L172.118 87.6965L177.489 88.9007L176.855 91.7611ZM172.389 75.2421L167.019 74.0379L167.652 71.1775L173.023 72.3817L172.389 75.2421ZM171.298 80.1682L165.928 78.964L166.561 76.1035L171.932 77.3077L171.298 80.1682ZM170.207 85.0969L164.836 83.8927L165.47 81.0323L170.84 82.2365L170.207 85.0969ZM169.115 90.0257L163.745 88.8215L164.378 85.961L169.749 87.1652L169.115 90.0257ZM164.649 73.5067L159.281 72.3029L159.914 69.4425L165.283 70.6462L164.649 73.5067ZM163.558 78.4328L158.19 77.229L158.823 74.3685L164.192 75.5723L163.558 78.4328ZM162.467 83.3615L157.098 82.1577L157.732 79.2973L163.1 80.501L162.467 83.3615ZM161.375 88.2902L156.007 87.0865L156.64 84.226L162.009 85.4298L161.375 88.2902ZM156.909 71.7712L151.54 70.5674L152.174 67.707L157.543 68.9107L156.909 71.7712ZM155.818 76.6973L150.45 75.4935L151.083 72.633L156.452 73.8368L155.818 76.6973ZM154.727 81.626L149.358 80.4222L149.992 77.5618L155.36 78.7655L154.727 81.626ZM153.635 86.5547L148.267 85.351L148.9 82.4905L154.269 83.6943L153.635 86.5547ZM149.169 70.0357L143.8 68.8318L144.433 65.9713L149.803 67.1753L149.169 70.0357ZM148.078 74.9618L142.709 73.7579L143.342 70.8974L148.712 72.1013L148.078 74.9618ZM146.987 79.8905L141.617 78.6866L142.251 75.8261L147.62 77.0301L146.987 79.8905ZM145.895 84.8193L140.526 83.6153L141.159 80.7548L146.529 81.9588L145.895 84.8193ZM141.429 68.3002L136.059 67.0963L136.693 64.2358L142.062 65.4398L141.429 68.3002ZM140.338 73.2263L134.969 72.0224L135.602 69.1619L140.972 70.3658L140.338 73.2263ZM139.247 78.155L133.877 76.9511L134.511 74.0906L139.88 75.2946L139.247 78.155ZM138.155 83.0838L132.786 81.8798L133.419 79.0194L138.789 80.2233L138.155 83.0838ZM133.689 66.5648L128.32 65.361L128.954 62.5006L134.322 63.7043L133.689 66.5648ZM132.598 71.4908L127.23 70.2871L127.863 67.4266L133.231 68.6304L132.598 71.4908ZM131.507 76.4196L126.138 75.2158L126.772 72.3554L132.14 73.5591L131.507 76.4196ZM130.415 81.3483L125.047 80.1446L125.68 77.2841L131.049 78.4878L130.415 81.3483ZM125.949 64.8293L120.579 63.6253L121.213 60.7649L126.582 61.9688L125.949 64.8293ZM124.858 69.7553L119.488 68.5514L120.122 65.6909L125.491 66.8949L124.858 69.7553ZM123.766 74.6841L118.397 73.4801L119.03 70.6197L124.4 71.8236L123.766 74.6841ZM122.675 79.6128L117.306 78.4089L117.939 75.5484L123.308 76.7523L122.675 79.6128ZM118.209 63.0938L112.838 61.8896L113.472 59.0291L118.842 60.2333L118.209 63.0938ZM117.118 68.0199L111.747 66.8157L112.381 63.9552L117.751 65.1594L117.118 68.0199ZM116.026 72.9486L110.656 71.7444L111.289 68.8839L116.66 70.0881L116.026 72.9486ZM114.935 77.8773L109.564 76.6731L110.198 73.8127L115.568 75.0168L114.935 77.8773ZM110.469 61.3583L105.1 60.1546L105.734 57.2941L111.102 58.4978L110.469 61.3583ZM109.378 66.2844L104.009 65.0807L104.643 62.2202L110.011 63.4239L109.378 66.2844ZM108.286 71.2131L102.918 70.0094L103.551 67.1489L108.92 68.3526L108.286 71.2131ZM107.195 76.1418L101.826 74.9381L102.46 72.0776L107.828 73.2814L107.195 76.1418ZM102.73 59.623L97.3601 58.4191L97.9935 55.5586L103.363 56.7626L102.73 59.623ZM101.639 64.5491L96.2692 63.3452L96.9027 60.4847L102.272 61.6886L101.639 64.5491ZM100.547 69.4778L95.1778 68.2739L95.8112 65.4134L101.181 66.6174L100.547 69.4778ZM99.4558 74.4066L94.0863 73.2026L94.7197 70.3422L100.089 71.5461L99.4558 74.4066ZM94.9887 57.8874L89.62 56.6836L90.2534 53.8231L95.6221 55.0269L94.9887 57.8874ZM93.8978 62.8134L88.5291 61.6097L89.1626 58.7492L94.5313 59.953L93.8978 62.8134ZM92.8064 67.7422L87.4377 66.5384L88.0711 63.6779L93.4398 64.8817L92.8064 67.7422ZM91.7149 72.6709L86.3462 71.4671L86.9797 68.6067L92.3483 69.8104L91.7149 72.6709ZM87.2486 56.1519L81.8802 54.9482L82.5136 52.0877L87.882 53.2914L87.2486 56.1519ZM86.1577 61.078L80.7893 59.8743L81.4227 57.0138L86.7912 58.2175L86.1577 61.078ZM85.0663 66.0067L79.6978 64.803L80.3313 61.9425L85.6997 63.1462L85.0663 66.0067ZM83.9748 70.9354L78.6064 69.7317L79.2398 66.8712L84.6082 68.075L83.9748 70.9354ZM79.5085 54.4164L74.1401 53.2127L74.7735 50.3522L80.1419 51.5559L79.5085 54.4164ZM78.4176 59.3425L73.0492 58.1388L73.6826 55.2783L79.0511 56.482L78.4176 59.3425ZM77.3262 64.2712L71.9577 63.0675L72.5912 60.207L77.9596 61.4107L77.3262 64.2712ZM76.2347 69.1999L70.8663 67.9962L71.4997 65.1358L76.8681 66.3395L76.2347 69.1999ZM71.7684 52.6809L66.4 51.4772L67.0334 48.6167L72.4018 49.8205L71.7684 52.6809ZM70.6775 57.607L65.3091 56.4033L65.9426 53.5428L71.311 54.7465L70.6775 57.607ZM69.5861 62.5357L64.2176 61.332L64.8511 58.4715L70.2195 59.6752L69.5861 62.5357ZM68.4946 67.4644L63.1262 66.2607L63.7596 63.4003L69.1281 64.604L68.4946 67.4644ZM185.607 73.2258C185.727 72.6866 185.387 72.1515 184.848 72.0307L174.281 69.6613L178.449 59.0158C178.673 58.4444 178.334 57.8067 177.735 57.6724L166.611 55.1783C166.204 55.0868 165.782 55.2589 165.556 55.6097L158.728 66.1742L147.111 63.5693L151.279 52.9235C151.502 52.3521 151.163 51.7145 150.564 51.5801L139.441 49.086C139.033 48.9946 138.612 49.1667 138.385 49.5175L131.558 60.0821L119.942 57.4775L124.11 46.8318C124.334 46.2603 123.995 45.6227 123.395 45.4884L112.272 42.9943C111.864 42.9028 111.443 43.0749 111.216 43.4258L104.39 53.9904L92.7714 51.3853L97.3642 39.6516L84.4226 36.7499L77.2201 47.8984L64.852 45.1252C64.3131 45.0044 63.7794 45.3435 63.66 45.8827L58.4609 69.3605C58.3415 69.8997 58.6815 70.4348 59.2204 70.5557L179.216 97.4611C179.755 97.582 180.289 97.2428 180.408 96.7036L185.607 73.2258Z" fill="#072D46"/>
<path d="M34.3074 72.4777C33.2165 72.2332 32.5292 71.1443 32.7717 70.049C33.0149 68.9511 34.0966 68.2588 35.1875 68.5034C36.2762 68.7475 36.9643 69.8366 36.7212 70.9345C36.4786 72.0298 35.3961 72.7219 34.3074 72.4777Z" fill="#072D46"/>
<path fill-rule="evenodd" clip-rule="evenodd" d="M183.311 99.0294C183.044 98.9814 182.769 99.0443 182.549 99.2036L178.515 102.131C178.284 102.299 177.991 102.359 177.711 102.296L57.1802 75.2708C56.9578 75.2209 56.7589 75.0965 56.6164 74.9182L51.1808 68.1137C51.0582 67.9602 50.8934 67.8462 50.7068 67.7857L9.36133 54.376C8.4002 54.0643 7.63916 55.2123 8.29842 55.9793L44.1244 97.6638C44.2651 97.8275 44.4548 97.9415 44.6652 97.9886L99.8766 110.368H210.768L214.969 106.322C215.557 105.756 215.254 104.76 214.45 104.615L183.311 99.0294ZM32.7717 70.049C32.5292 71.1443 33.2165 72.2332 34.3074 72.4777C35.3961 72.7219 36.4786 72.0298 36.7212 70.9345C36.9643 69.8366 36.2762 68.7475 35.1875 68.5034C34.0966 68.2588 33.0149 68.9511 32.7717 70.049Z" fill="#072D46"/>
<path d="M195.375 122C195.375 123.105 162.915 124 122.875 124C82.8339 124 50.3745 123.105 50.3745 122C50.3745 120.895 82.8339 120 122.875 120C162.915 120 195.375 120.895 195.375 122Z" fill="#072D46"/>
<path d="M229.375 112C229.375 114.209 180.574 116 120.375 116C60.1755 116 11.3745 114.209 11.3745 112C11.3745 109.791 60.1755 108 120.375 108C180.574 108 229.375 109.791 229.375 112Z" fill="#072D46"/>
</svg>
