<svg width="30" height="30" viewBox="0 0 30 30" fill="none" xmlns="http://www.w3.org/2000/svg">
<path d="M22.5 2.5H7.5C6.50544 2.5 5.55161 2.89509 4.84835 3.59835C4.14509 4.30161 3.75 5.25544 3.75 6.25V20C3.75 20.9946 4.14509 21.9484 4.84835 22.6517C5.55161 23.3549 6.50544 23.75 7.5 23.75H10.7375L14.1125 27.1375C14.2293 27.2534 14.3678 27.345 14.5201 27.4072C14.6724 27.4694 14.8355 27.501 15 27.5C15.2979 27.5 15.5861 27.3936 15.8125 27.2L19.8375 23.75H22.5C23.4946 23.75 24.4484 23.3549 25.1517 22.6517C25.8549 21.9484 26.25 20.9946 26.25 20V6.25C26.25 5.25544 25.8549 4.30161 25.1517 3.59835C24.4484 2.89509 23.4946 2.5 22.5 2.5ZM23.75 20C23.75 20.3315 23.6183 20.6495 23.3839 20.8839C23.1495 21.1183 22.8315 21.25 22.5 21.25H19.375C19.0771 21.25 18.7889 21.3564 18.5625 21.55L15.0625 24.55L12.1375 21.6125C12.0207 21.4967 11.8822 21.405 11.7299 21.3428C11.5776 21.2806 11.4145 21.2491 11.25 21.25H7.5C7.16848 21.25 6.85054 21.1183 6.61612 20.8839C6.3817 20.6495 6.25 20.3315 6.25 20V6.25C6.25 5.91848 6.3817 5.60054 6.61612 5.36612C6.85054 5.1317 7.16848 5 7.5 5H22.5C22.8315 5 23.1495 5.1317 23.3839 5.36612C23.6183 5.60054 23.75 5.91848 23.75 6.25V20Z" fill="white"/>
</svg>
