<svg width="18" height="18" viewBox="0 0 18 18" fill="none" xmlns="http://www.w3.org/2000/svg">
<path d="M4.82634 11.0851C4.7169 11.0851 4.60852 11.1066 4.5074 11.1485C4.40629 11.1904 4.31441 11.2518 4.23702 11.3291C4.15963 11.4065 4.09825 11.4984 4.05638 11.5995C4.01451 11.7006 3.99298 11.809 3.99301 11.9185V13.4037C2.91888 12.189 2.32609 10.6233 2.32634 9.0018C2.32619 8.75673 2.34086 8.51187 2.37028 8.26857C2.38377 8.15977 2.37566 8.04937 2.34641 7.94371C2.31716 7.83806 2.26735 7.73921 2.19983 7.65283C2.13231 7.56646 2.0484 7.49426 1.95293 7.44037C1.85745 7.38648 1.75228 7.35196 1.64344 7.33879C1.5346 7.32562 1.42424 7.33406 1.31866 7.36362C1.21309 7.39319 1.11439 7.44329 1.02822 7.51107C0.942042 7.57884 0.870091 7.66296 0.816484 7.75859C0.762878 7.85423 0.728671 7.9595 0.715823 8.06838C0.678075 8.37808 0.659324 8.6898 0.659673 9.0018C0.660805 10.9903 1.37547 12.9123 2.67373 14.4185H1.49301C1.27199 14.4185 1.06003 14.5063 0.90375 14.6625C0.74747 14.8188 0.659673 15.0308 0.659673 15.2518C0.659673 15.4728 0.74747 15.6848 0.90375 15.8411C1.06003 15.9973 1.27199 16.0851 1.49301 16.0851H4.82634C4.95667 16.0835 5.08473 16.0507 5.19984 15.9896C5.31495 15.9285 5.41378 15.8407 5.48811 15.7336C5.49783 15.7208 5.51024 15.7113 5.51929 15.6978C5.52484 15.6895 5.52499 15.6797 5.53017 15.6712C5.56989 15.6041 5.59964 15.5316 5.61851 15.456C5.63084 15.4135 5.6396 15.37 5.6447 15.3261C5.64709 15.3004 5.6597 15.2782 5.6597 15.2518V11.9185C5.65973 11.809 5.6382 11.7007 5.59633 11.5995C5.55446 11.4984 5.49307 11.4065 5.41568 11.3291C5.33829 11.2518 5.24641 11.1904 5.14529 11.1485C5.04417 11.1066 4.93579 11.0851 4.82634 11.0851ZM6.07634 4.0018H4.59095C5.80578 2.92772 7.37144 2.33495 8.99301 2.33513C9.23796 2.33455 9.48271 2.34922 9.72583 2.37908C9.83452 2.39228 9.94474 2.38394 10.0502 2.35455C10.1557 2.32515 10.2543 2.27526 10.3405 2.20774C10.4267 2.14022 10.4987 2.05639 10.5525 1.96102C10.6063 1.86566 10.6408 1.76064 10.654 1.65195C10.6672 1.54326 10.6588 1.43304 10.6294 1.32758C10.6 1.22211 10.5502 1.12347 10.4826 1.03729C10.4151 0.9511 10.3313 0.879057 10.2359 0.825271C10.1405 0.771484 10.0355 0.737008 9.92684 0.723809C9.61697 0.686427 9.30512 0.667946 8.99301 0.668468C7.00456 0.669549 5.08252 1.38416 3.57634 2.68238V1.5018C3.57634 1.28079 3.48854 1.06883 3.33226 0.912545C3.17598 0.756265 2.96402 0.668468 2.74301 0.668468C2.52199 0.668468 2.31003 0.756265 2.15375 0.912545C1.99747 1.06883 1.90967 1.28079 1.90967 1.5018V4.83513C1.91491 4.89021 1.92589 4.94459 1.94243 4.99739L1.94263 4.99841C1.96287 5.10095 2.00282 5.19859 2.06027 5.28591L2.06979 5.29999C2.12485 5.38008 2.19387 5.44961 2.27354 5.50528C2.28265 5.51194 2.28717 5.52216 2.29663 5.52852C2.30854 5.5364 2.32201 5.5389 2.33417 5.54612C2.38143 5.57455 2.43151 5.59801 2.48361 5.61612C2.55401 5.64061 2.62741 5.65543 2.70181 5.66016C2.71625 5.66093 2.72841 5.66849 2.74301 5.66849H6.07634C6.29735 5.66849 6.50931 5.5807 6.66559 5.42442C6.82188 5.26814 6.90967 5.05617 6.90967 4.83516C6.90967 4.61415 6.82188 4.40218 6.66559 4.2459C6.50931 4.08962 6.29735 4.00183 6.07634 4.00183V4.0018ZM16.0434 13.0052C16.0232 12.9026 15.9832 12.805 15.9257 12.7176L15.9163 12.7036C15.8612 12.6235 15.7921 12.5539 15.7124 12.4983C15.7033 12.4917 15.6988 12.4814 15.6894 12.4751C15.6804 12.4691 15.6697 12.4689 15.6605 12.4633C15.5548 12.4046 15.439 12.3663 15.3191 12.3505C15.2927 12.348 15.27 12.3351 15.243 12.3351H11.9097C11.6887 12.3351 11.4767 12.4229 11.3204 12.5792C11.1641 12.7355 11.0763 12.9474 11.0763 13.1684C11.0763 13.3894 11.1641 13.6014 11.3204 13.7577C11.4767 13.914 11.6887 14.0018 11.9097 14.0018H13.395C12.1802 15.0758 10.6146 15.6686 8.99301 15.6684C8.74804 15.6687 8.50328 15.6538 8.26017 15.6237C8.04067 15.597 7.81957 15.6586 7.64551 15.795C7.47145 15.9314 7.35869 16.1313 7.33203 16.3508C7.30538 16.5703 7.36701 16.7914 7.50337 16.9655C7.63974 17.1395 7.83966 17.2523 8.05916 17.2789C8.36904 17.3163 8.68088 17.3351 8.99301 17.3351C10.9815 17.334 12.9035 16.6194 14.4097 15.3212V16.5018C14.4097 16.7228 14.4975 16.9348 14.6538 17.0911C14.81 17.2473 15.022 17.3351 15.243 17.3351C15.464 17.3351 15.676 17.2473 15.8323 17.0911C15.9885 16.9348 16.0763 16.7228 16.0763 16.5018V13.1685C16.0711 13.1134 16.0601 13.059 16.0436 13.0062L16.0434 13.0052ZM16.493 3.58513C16.714 3.58513 16.926 3.49734 17.0823 3.34106C17.2385 3.18478 17.3263 2.97281 17.3263 2.7518C17.3263 2.53079 17.2385 2.31883 17.0823 2.16255C16.926 2.00627 16.714 1.91847 16.493 1.91847H13.1597C13.1054 1.9237 13.0519 1.9345 12.9998 1.95072L12.9943 1.95183C12.8931 1.97208 12.7967 2.01155 12.7103 2.06811L12.694 2.07914C12.6143 2.13412 12.5451 2.20292 12.4896 2.28229C12.483 2.29129 12.4729 2.29572 12.4667 2.30503C12.4608 2.31398 12.4606 2.32456 12.455 2.33366C12.3955 2.43999 12.3569 2.55671 12.3413 2.67754C12.339 2.70328 12.3263 2.72546 12.3263 2.7518V6.08513C12.3263 6.30615 12.4141 6.51811 12.5704 6.67439C12.7267 6.83067 12.9387 6.91847 13.1597 6.91847C13.3807 6.91847 13.5926 6.83067 13.7489 6.67439C13.9052 6.51811 13.993 6.30615 13.993 6.08513V4.5994C15.067 5.81438 15.6598 7.38012 15.6597 9.00176C15.6598 9.24684 15.6452 9.4917 15.6157 9.735C15.5893 9.95435 15.651 10.1752 15.7872 10.3491C15.9235 10.5231 16.1232 10.6359 16.3425 10.6627C16.3762 10.6666 16.4102 10.6685 16.4442 10.6684C16.6477 10.6682 16.844 10.5934 16.9962 10.4584C17.1483 10.3233 17.2458 10.1372 17.2702 9.93519C17.3079 9.6255 17.3267 9.31379 17.3263 9.0018C17.3252 7.01332 16.6105 5.09127 15.3122 3.58513H16.493Z" fill="#828C9C"/>
</svg>
