<svg width="14" height="14" viewBox="0 0 14 14" fill="none" xmlns="http://www.w3.org/2000/svg">
<path d="M7.33366 0.332031C6.01512 0.332031 4.72619 0.723024 3.62986 1.45557C2.53353 2.18811 1.67905 3.2293 1.17447 4.44747C0.669881 5.66565 0.537859 7.00609 0.795093 8.2993C1.05233 9.59251 1.68727 10.7804 2.61962 11.7127C3.55197 12.6451 4.73985 13.28 6.03306 13.5373C7.32627 13.7945 8.66671 13.6625 9.88489 13.1579C11.1031 12.6533 12.1442 11.7988 12.8768 10.7025C13.6093 9.60617 14.0003 8.31724 14.0003 6.9987C14.0003 6.12322 13.8279 5.25631 13.4929 4.44747C13.1578 3.63864 12.6668 2.90371 12.0477 2.28465C11.4286 1.6656 10.6937 1.17453 9.88489 0.839501C9.07605 0.50447 8.20914 0.332031 7.33366 0.332031ZM7.33366 12.332C6.27883 12.332 5.24768 12.0192 4.37062 11.4332C3.49356 10.8472 2.80997 10.0142 2.4063 9.03968C2.00264 8.06514 1.89702 6.99278 2.10281 5.95822C2.30859 4.92365 2.81655 3.97334 3.56243 3.22746C4.30831 2.48158 5.25862 1.97363 6.29318 1.76784C7.32775 1.56206 8.4001 1.66767 9.37464 2.07134C10.3492 2.47501 11.1821 3.15859 11.7682 4.03566C12.3542 4.91272 12.667 5.94386 12.667 6.9987C12.667 8.41319 12.1051 9.76974 11.1049 10.7699C10.1047 11.7701 8.74815 12.332 7.33366 12.332ZM7.33366 2.9987C7.15685 2.9987 6.98728 3.06894 6.86226 3.19396C6.73723 3.31898 6.667 3.48855 6.667 3.66536V6.61203L5.267 7.4187C5.13857 7.49147 5.03792 7.60482 4.98085 7.74095C4.92377 7.87709 4.9135 8.02831 4.95163 8.17092C4.98976 8.31352 5.07414 8.43944 5.19154 8.52892C5.30894 8.61841 5.45272 8.6664 5.60033 8.66537C5.71711 8.66617 5.83206 8.63628 5.93366 8.5787L7.667 7.5787L7.727 7.5187L7.83366 7.43203C7.85973 7.39903 7.88209 7.36326 7.90033 7.32536C7.92206 7.28957 7.93993 7.25159 7.95366 7.21203C7.9718 7.16964 7.98305 7.12463 7.987 7.0787L8.00033 6.9987V3.66536C8.00033 3.48855 7.93009 3.31898 7.80507 3.19396C7.68004 3.06894 7.51047 2.9987 7.33366 2.9987Z" fill="current"/>
</svg>
