<svg width="16" height="16" viewBox="0 0 16 16" fill="none" xmlns="http://www.w3.org/2000/svg">
<path d="M7.33366 1.33337C6.01512 1.33337 4.72619 1.72437 3.62986 2.45691C2.53353 3.18945 1.67905 4.23064 1.17447 5.44882C0.669881 6.66699 0.537859 8.00744 0.795093 9.30064C1.05233 10.5938 1.68727 11.7817 2.61962 12.7141C3.55197 13.6464 4.73985 14.2814 6.03306 14.5386C7.32627 14.7958 8.66671 14.6638 9.88489 14.1592C11.1031 13.6547 12.1442 12.8002 12.8768 11.7038C13.6093 10.6075 14.0003 9.31858 14.0003 8.00004C14.0003 7.12456 13.8279 6.25766 13.4929 5.44882C13.1578 4.63998 12.6668 3.90505 12.0477 3.286C11.4286 2.66694 10.6937 2.17588 9.88489 1.84084C9.07605 1.50581 8.20914 1.33337 7.33366 1.33337ZM7.33366 13.3334C6.27883 13.3334 5.24768 13.0206 4.37062 12.4345C3.49356 11.8485 2.80997 11.0156 2.4063 10.041C2.00264 9.06648 1.89702 7.99412 2.10281 6.95956C2.30859 5.92499 2.81655 4.97468 3.56243 4.2288C4.30831 3.48292 5.25862 2.97497 6.29318 2.76919C7.32775 2.5634 8.4001 2.66902 9.37464 3.07268C10.3492 3.47635 11.1821 4.15994 11.7682 5.037C12.3542 5.91406 12.667 6.94521 12.667 8.00004C12.667 9.41453 12.1051 10.7711 11.1049 11.7713C10.1047 12.7715 8.74815 13.3334 7.33366 13.3334ZM9.40033 8.42004L8.00033 7.61337V4.66671C8.00033 4.4899 7.93009 4.32033 7.80507 4.1953C7.68004 4.07028 7.51047 4.00004 7.33366 4.00004C7.15685 4.00004 6.98728 4.07028 6.86226 4.1953C6.73723 4.32033 6.667 4.4899 6.667 4.66671V8.00004C6.667 8.00004 6.667 8.05337 6.667 8.08004C6.67094 8.12598 6.6822 8.17099 6.70033 8.21337C6.71406 8.25293 6.73194 8.29092 6.75366 8.32671C6.7719 8.3646 6.79426 8.40037 6.82033 8.43337L6.927 8.52004L6.987 8.58004L8.72033 9.58004C8.82193 9.63763 8.93688 9.66751 9.05366 9.66671C9.20127 9.66774 9.34505 9.61975 9.46245 9.53027C9.57985 9.44078 9.66424 9.31487 9.70237 9.17226C9.7405 9.02966 9.73022 8.87843 9.67314 8.74229C9.61607 8.60616 9.51542 8.49282 9.387 8.42004H9.40033Z" fill="current"/>
</svg>
