<svg width="16" height="16" viewBox="0 0 16 16" fill="none" xmlns="http://www.w3.org/2000/svg">
<path d="M8.00033 9.33203C7.82351 9.33203 7.65394 9.40227 7.52892 9.52729C7.4039 9.65232 7.33366 9.82189 7.33366 9.9987V11.332C7.33366 11.5088 7.4039 11.6784 7.52892 11.8034C7.65394 11.9285 7.82351 11.9987 8.00033 11.9987C8.17714 11.9987 8.34671 11.9285 8.47173 11.8034C8.59675 11.6784 8.66699 11.5088 8.66699 11.332V9.9987C8.66699 9.82189 8.59675 9.65232 8.47173 9.52729C8.34671 9.40227 8.17714 9.33203 8.00033 9.33203ZM8.25366 7.38536C8.13298 7.32941 7.99832 7.31083 7.86699 7.33203L7.74699 7.37203L7.62699 7.43203L7.52699 7.51203C7.46359 7.5759 7.41377 7.65195 7.38054 7.73559C7.34731 7.81923 7.33137 7.90873 7.33366 7.9987C7.33315 8.08644 7.34997 8.17341 7.38314 8.25464C7.41632 8.33586 7.4652 8.40974 7.52699 8.47203C7.59039 8.53273 7.66516 8.5803 7.74699 8.61203C7.82611 8.64935 7.91287 8.66762 8.00033 8.66536C8.08806 8.66587 8.17504 8.64906 8.25626 8.61588C8.33749 8.5827 8.41137 8.53382 8.47366 8.47203C8.53545 8.40974 8.58433 8.33586 8.61751 8.25464C8.65068 8.17341 8.6675 8.08644 8.66699 7.9987C8.6675 7.91096 8.65068 7.82399 8.61751 7.74276C8.58433 7.66154 8.53545 7.58766 8.47366 7.52536C8.40886 7.46648 8.33445 7.41913 8.25366 7.38536ZM13.3337 5.9587C13.3267 5.89745 13.3133 5.83712 13.2937 5.7787V5.7187C13.2616 5.65015 13.2188 5.58714 13.167 5.53203L9.16699 1.53203C9.11188 1.48018 9.04887 1.43742 8.98033 1.40536H8.91366C8.84883 1.3707 8.77917 1.34598 8.70699 1.33203H4.66699C4.13656 1.33203 3.62785 1.54274 3.25278 1.91782C2.87771 2.29289 2.66699 2.8016 2.66699 3.33203V12.6654C2.66699 13.1958 2.87771 13.7045 3.25278 14.0796C3.62785 14.4547 4.13656 14.6654 4.66699 14.6654H11.3337C11.8641 14.6654 12.3728 14.4547 12.7479 14.0796C13.1229 13.7045 13.3337 13.1958 13.3337 12.6654V5.9987C13.3337 5.9987 13.3337 5.9987 13.3337 5.9587ZM9.33366 3.60536L11.0603 5.33203H10.0003C9.82351 5.33203 9.65394 5.26179 9.52892 5.13677C9.4039 5.01174 9.33366 4.84218 9.33366 4.66536V3.60536ZM12.0003 12.6654C12.0003 12.8422 11.9301 13.0117 11.8051 13.1368C11.68 13.2618 11.5105 13.332 11.3337 13.332H4.66699C4.49018 13.332 4.32061 13.2618 4.19559 13.1368C4.07056 13.0117 4.00033 12.8422 4.00033 12.6654V3.33203C4.00033 3.15522 4.07056 2.98565 4.19559 2.86063C4.32061 2.7356 4.49018 2.66536 4.66699 2.66536H8.00033V4.66536C8.00033 5.1958 8.21104 5.70451 8.58611 6.07958C8.96118 6.45465 9.46989 6.66536 10.0003 6.66536H12.0003V12.6654Z" fill="current"/>
</svg>
