<svg width="12" height="14" viewBox="0 0 12 14" fill="none" xmlns="http://www.w3.org/2000/svg">
<path d="M6.00033 8.33203C5.82351 8.33203 5.65394 8.40227 5.52892 8.52729C5.4039 8.65232 5.33366 8.82189 5.33366 8.9987V10.332C5.33366 10.5088 5.4039 10.6784 5.52892 10.8034C5.65394 10.9285 5.82351 10.9987 6.00033 10.9987C6.17714 10.9987 6.34671 10.9285 6.47173 10.8034C6.59675 10.6784 6.66699 10.5088 6.66699 10.332V8.9987C6.66699 8.82189 6.59675 8.65232 6.47173 8.52729C6.34671 8.40227 6.17714 8.33203 6.00033 8.33203ZM6.25366 6.38536C6.13298 6.32941 5.99832 6.31083 5.86699 6.33203L5.74699 6.37203L5.62699 6.43203L5.52699 6.51203C5.46359 6.5759 5.41377 6.65195 5.38054 6.73559C5.34731 6.81923 5.33137 6.90873 5.33366 6.9987C5.33315 7.08644 5.34997 7.17341 5.38314 7.25464C5.41632 7.33586 5.4652 7.40974 5.52699 7.47203C5.59039 7.53273 5.66516 7.5803 5.74699 7.61203C5.82611 7.64935 5.91287 7.66762 6.00033 7.66536C6.08806 7.66587 6.17504 7.64906 6.25626 7.61588C6.33749 7.5827 6.41137 7.53382 6.47366 7.47203C6.53545 7.40974 6.58433 7.33586 6.61751 7.25464C6.65068 7.17341 6.6675 7.08644 6.66699 6.9987C6.6675 6.91096 6.65068 6.82399 6.61751 6.74276C6.58433 6.66154 6.53545 6.58766 6.47366 6.52536C6.40886 6.46648 6.33445 6.41913 6.25366 6.38536ZM11.3337 4.9587C11.3267 4.89745 11.3133 4.83712 11.2937 4.7787V4.7187C11.2616 4.65015 11.2188 4.58714 11.167 4.53203L7.16699 0.532031C7.11188 0.480175 7.04887 0.437419 6.98033 0.405365H6.91366C6.84883 0.3707 6.77917 0.345979 6.70699 0.332031H2.66699C2.13656 0.332031 1.62785 0.542745 1.25278 0.917818C0.877706 1.29289 0.666992 1.8016 0.666992 2.33203V11.6654C0.666992 12.1958 0.877706 12.7045 1.25278 13.0796C1.62785 13.4547 2.13656 13.6654 2.66699 13.6654H9.33366C9.86409 13.6654 10.3728 13.4547 10.7479 13.0796C11.1229 12.7045 11.3337 12.1958 11.3337 11.6654V4.9987C11.3337 4.9987 11.3337 4.9987 11.3337 4.9587ZM7.33366 2.60536L9.06032 4.33203H8.00033C7.82351 4.33203 7.65394 4.26179 7.52892 4.13677C7.4039 4.01174 7.33366 3.84218 7.33366 3.66536V2.60536ZM10.0003 11.6654C10.0003 11.8422 9.93009 12.0117 9.80506 12.1368C9.68004 12.2618 9.51047 12.332 9.33366 12.332H2.66699C2.49018 12.332 2.32061 12.2618 2.19559 12.1368C2.07056 12.0117 2.00033 11.8422 2.00033 11.6654V2.33203C2.00033 2.15522 2.07056 1.98565 2.19559 1.86063C2.32061 1.7356 2.49018 1.66536 2.66699 1.66536H6.00033V3.66536C6.00033 4.1958 6.21104 4.70451 6.58611 5.07958C6.96118 5.45465 7.46989 5.66536 8.00033 5.66536H10.0003V11.6654Z" fill="#204258"/>
</svg>
