<svg width="20" height="20" viewBox="0 0 20 20" fill="none" xmlns="http://www.w3.org/2000/svg">
<path d="M9.40831 9.54996C9.48578 9.62807 9.57795 9.69006 9.6795 9.73237C9.78105 9.77468 9.88997 9.79646 9.99998 9.79646C10.11 9.79646 10.2189 9.77468 10.3205 9.73237C10.422 9.69006 10.5142 9.62807 10.5916 9.54996L13.0916 7.04996C13.1715 6.97226 13.2353 6.87959 13.2794 6.77723C13.3235 6.67488 13.347 6.56484 13.3485 6.45341C13.3501 6.34198 13.3296 6.23134 13.2884 6.1278C13.2472 6.02426 13.186 5.92985 13.1083 5.84996C13.0306 5.77007 12.9379 5.70627 12.8356 5.6622C12.7332 5.61813 12.6232 5.59465 12.5118 5.5931C12.4003 5.59155 12.2897 5.61197 12.1861 5.65318C12.0826 5.69439 11.9882 5.7556 11.9083 5.83329L9.99998 7.78329L8.09164 5.83329C7.9303 5.67637 7.71324 5.58997 7.48819 5.5931C7.26315 5.59623 7.04856 5.68862 6.89164 5.84996C6.73472 6.0113 6.64832 6.22837 6.65145 6.45341C6.65457 6.67846 6.74697 6.89304 6.90831 7.04996L9.40831 9.54996ZM11.9083 10.45L9.99998 12.3666L8.09164 10.45C7.9303 10.293 7.71324 10.2066 7.48819 10.2098C7.26315 10.2129 7.04856 10.3053 6.89164 10.4666C6.73472 10.628 6.64832 10.845 6.65145 11.0701C6.65457 11.2951 6.74697 11.5097 6.90831 11.6666L9.40831 14.1666C9.48578 14.2447 9.57795 14.3067 9.6795 14.349C9.78105 14.3913 9.88997 14.4131 9.99998 14.4131C10.11 14.4131 10.2189 14.3913 10.3205 14.349C10.422 14.3067 10.5142 14.2447 10.5916 14.1666L13.0916 11.6666C13.2486 11.5097 13.3367 11.2969 13.3367 11.075C13.3367 10.853 13.2486 10.6402 13.0916 10.4833C12.9347 10.3264 12.7219 10.2382 12.5 10.2382C12.2781 10.2382 12.0652 10.3264 11.9083 10.4833V10.45Z" fill="#199AF5"/>
</svg>
