<svg width="14" height="14" viewBox="0 0 14 14" fill="none" xmlns="http://www.w3.org/2000/svg">
<path d="M2.33301 11H5.15967C5.24741 11.0005 5.33439 10.9837 5.41561 10.9505C5.49684 10.9173 5.57071 10.8685 5.63301 10.8067L10.2463 6.18667L12.1397 4.33333C12.2022 4.27136 12.2518 4.19762 12.2856 4.11638C12.3194 4.03515 12.3369 3.94801 12.3369 3.86C12.3369 3.77199 12.3194 3.68485 12.2856 3.60362C12.2518 3.52238 12.2022 3.44864 12.1397 3.38667L9.31301 0.526667C9.25103 0.464181 9.1773 0.414585 9.09606 0.380739C9.01482 0.346893 8.92768 0.329468 8.83967 0.329468C8.75167 0.329468 8.66453 0.346893 8.58329 0.380739C8.50205 0.414585 8.42832 0.464181 8.36634 0.526667L6.48634 2.41333L1.85967 7.03333C1.79789 7.09563 1.749 7.1695 1.71583 7.25073C1.68265 7.33195 1.66583 7.41893 1.66634 7.50667V10.3333C1.66634 10.5101 1.73658 10.6797 1.8616 10.8047C1.98663 10.9298 2.1562 11 2.33301 11ZM8.83967 1.94L10.7263 3.82667L9.77967 4.77333L7.89301 2.88667L8.83967 1.94ZM2.99967 7.78L6.95301 3.82667L8.83967 5.71333L4.88634 9.66667H2.99967V7.78ZM12.9997 12.3333H0.999674C0.822863 12.3333 0.653294 12.4036 0.52827 12.5286C0.403246 12.6536 0.333008 12.8232 0.333008 13C0.333008 13.1768 0.403246 13.3464 0.52827 13.4714C0.653294 13.5964 0.822863 13.6667 0.999674 13.6667H12.9997C13.1765 13.6667 13.3461 13.5964 13.4711 13.4714C13.5961 13.3464 13.6663 13.1768 13.6663 13C13.6663 12.8232 13.5961 12.6536 13.4711 12.5286C13.3461 12.4036 13.1765 12.3333 12.9997 12.3333Z" fill="#199AF5"/>
</svg>
