<svg width="28" height="28" viewBox="0 0 28 28" fill="none" xmlns="http://www.w3.org/2000/svg">
<path d="M22.1666 4.66675H5.83325C4.90499 4.66675 4.01476 5.0355 3.35838 5.69187C2.702 6.34825 2.33325 7.23849 2.33325 8.16675V19.8334C2.33325 20.7617 2.702 21.6519 3.35838 22.3083C4.01476 22.9647 4.90499 23.3334 5.83325 23.3334H22.1666C23.0948 23.3334 23.9851 22.9647 24.6415 22.3083C25.2978 21.6519 25.6666 20.7617 25.6666 19.8334V8.16675C25.6666 7.23849 25.2978 6.34825 24.6415 5.69187C23.9851 5.0355 23.0948 4.66675 22.1666 4.66675ZM5.83325 7.00008H22.1666C22.476 7.00008 22.7728 7.123 22.9915 7.34179C23.2103 7.56058 23.3333 7.85733 23.3333 8.16675L13.9999 13.8601L4.66659 8.16675C4.66659 7.85733 4.7895 7.56058 5.00829 7.34179C5.22709 7.123 5.52383 7.00008 5.83325 7.00008ZM23.3333 19.8334C23.3333 20.1428 23.2103 20.4396 22.9915 20.6584C22.7728 20.8772 22.476 21.0001 22.1666 21.0001H5.83325C5.52383 21.0001 5.22709 20.8772 5.00829 20.6584C4.7895 20.4396 4.66659 20.1428 4.66659 19.8334V10.8267L13.3933 16.1584C13.5706 16.2608 13.7718 16.3147 13.9766 16.3147C14.1814 16.3147 14.3826 16.2608 14.5599 16.1584L23.3333 10.8267V19.8334Z" fill="current"/>
</svg>
