<svg width="12" height="14" viewBox="0 0 12 14" fill="none" xmlns="http://www.w3.org/2000/svg">
<path d="M11.0009 5.99994H3.41087L6.71087 2.70994C6.89918 2.52164 7.00496 2.26624 7.00496 1.99994C7.00496 1.73364 6.89918 1.47825 6.71087 1.28994C6.52257 1.10164 6.26717 0.99585 6.00087 0.99585C5.73457 0.99585 5.47918 1.10164 5.29087 1.28994L0.290873 6.28994C0.199832 6.38505 0.128467 6.49719 0.0808729 6.61994C-0.0191451 6.8634 -0.0191451 7.13648 0.0808729 7.37994C0.128467 7.50269 0.199832 7.61484 0.290873 7.70994L5.29087 12.7099C5.38384 12.8037 5.49444 12.8781 5.6163 12.9288C5.73816 12.9796 5.86886 13.0057 6.00087 13.0057C6.13288 13.0057 6.26359 12.9796 6.38545 12.9288C6.50731 12.8781 6.61791 12.8037 6.71087 12.7099C6.8046 12.617 6.879 12.5064 6.92976 12.3845C6.98053 12.2627 7.00667 12.132 7.00667 11.9999C7.00667 11.8679 6.98053 11.7372 6.92976 11.6154C6.879 11.4935 6.8046 11.3829 6.71087 11.2899L3.41087 7.99994H11.0009C11.2661 7.99994 11.5204 7.89458 11.708 7.70705C11.8955 7.51951 12.0009 7.26516 12.0009 6.99994C12.0009 6.73472 11.8955 6.48037 11.708 6.29283C11.5204 6.1053 11.2661 5.99994 11.0009 5.99994Z" fill="#072D46"/>
</svg>
