<svg width="18" height="18" viewBox="0 0 18 18" fill="none" xmlns="http://www.w3.org/2000/svg">
<path d="M17.0909 15.9075L13.9992 12.8409C15.1993 11.3445 15.7804 9.44527 15.6232 7.5336C15.466 5.62194 14.5822 3.84317 13.1538 2.56306C11.7253 1.28294 9.86069 0.59878 7.94329 0.651247C6.02589 0.703714 4.20146 1.48882 2.84514 2.84514C1.48882 4.20146 0.703714 6.02589 0.651247 7.94329C0.59878 9.86069 1.28294 11.7253 2.56306 13.1538C3.84317 14.5822 5.62194 15.466 7.5336 15.6232C9.44527 15.7804 11.3445 15.1993 12.8409 13.9992L15.9075 17.0659C15.985 17.144 16.0772 17.206 16.1787 17.2483C16.2803 17.2906 16.3892 17.3124 16.4992 17.3124C16.6092 17.3124 16.7181 17.2906 16.8197 17.2483C16.9212 17.206 17.0134 17.144 17.0909 17.0659C17.2411 16.9105 17.325 16.7028 17.325 16.4867C17.325 16.2706 17.2411 16.0629 17.0909 15.9075V15.9075ZM8.16585 13.9992C7.01213 13.9992 5.88431 13.6571 4.92503 13.0161C3.96574 12.3751 3.21807 11.4641 2.77656 10.3982C2.33505 9.33227 2.21953 8.15938 2.44461 7.02783C2.66969 5.89627 3.22526 4.85687 4.04107 4.04106C4.85687 3.22526 5.89627 2.66969 7.02783 2.44461C8.15938 2.21953 9.33227 2.33505 10.3982 2.77656C11.4641 3.21807 12.3751 3.96574 13.0161 4.92503C13.6571 5.88431 13.9992 7.01213 13.9992 8.16585C13.9992 9.71295 13.3846 11.1967 12.2906 12.2906C11.1967 13.3846 9.71295 13.9992 8.16585 13.9992V13.9992Z" fill="#828C9C"/>
</svg>
