<svg width="20" height="20" viewBox="0 0 20 20" fill="none" xmlns="http://www.w3.org/2000/svg">
<path fill-rule="evenodd" clip-rule="evenodd" d="M5.55556 3.73472C5.55556 4.69305 4.87093 5.46927 3.74437 5.46927C2.68463 5.46927 2 4.69323 2 3.73472C2 2.75332 2.70678 2 3.78868 2C4.87093 2 5.53375 2.75332 5.55556 3.73472ZM2.08789 17.9998V6.83887H5.44507V18H2.08789V17.9998ZM7.33398 6.69883C7.37936 7.71591 7.42473 8.89438 7.42473 10.304V17.9999H10.8893V11.4828C10.8893 11.1591 10.9122 10.8354 11.0036 10.6045C11.2543 9.95728 11.8238 9.28726 12.7809 9.28726C14.0346 9.28726 14.5361 10.2806 14.5361 11.7368V17.9999H18.0007V11.3207C18.0007 7.99287 16.2912 6.44434 14.0121 6.44434C12.143 6.44434 11.0261 7.53043 10.5704 8.27037H10.5022L10.3421 6.69883H7.33398Z" fill="#072D46"/>
</svg>
