<svg width="44" height="32" viewBox="0 0 44 32" fill="none" xmlns="http://www.w3.org/2000/svg">
<path d="M29.5667 26.3472C27.4271 28.9267 25.5741 29.3664 24.6972 30.3179C23.1459 31.9916 21.247 30.3968 21.8862 30.3968C23.0915 30.3968 23.2427 30.4518 23.2427 30.2439C23.2427 28.8123 23.3002 28.7457 23.0915 28.7457H21.8518C21.755 28.7457 21.6667 28.6356 21.7308 28.5622C22.4426 27.7476 23.452 27.854 24.4976 28.1353C25.7204 27.7079 27.3255 26.8481 28.1739 25.9736L29.5667 26.3472Z" fill="current"/>
<path d="M22.72 30.1648H20.4201C20.3089 30.1648 20.2188 30.0737 20.2188 29.9612V29.1821C20.2188 29.0696 20.3089 28.9785 20.4201 28.9785H22.72C22.8313 28.9785 22.9214 29.0696 22.9214 29.1821V29.9612C22.9214 30.0731 22.8313 30.1648 22.72 30.1648Z" fill="current"/>
<path d="M17.7382 2.40914C3.46154 -3.20834 -4.81826 7.98258 3.03034 20.218C8.8542 29.2985 18.4373 30.3216 18.4433 30.3253C20.0792 31.9795 21.7949 30.3975 21.1871 30.3975C19.6147 30.3363 19.9171 30.7032 19.8857 28.917C19.8857 28.6454 19.9171 28.7463 21.2101 28.7133C21.8366 28.7133 20.5515 27.3013 18.6441 28.1703C18.4602 28.2541 13.76 27.1912 10.3316 24.0009C3.98405 18.0936 2.29797 10.4764 6.19204 6.35837C9.31624 3.05552 19.2997 1.93337 27.4694 11.7679C27.7125 12.0682 27.4083 12.0492 28.6366 11.7655C27.1864 8.76412 22.1172 4.13242 17.7382 2.40914ZM20.5201 4.39721C6.56034 -1.93147 -3.4267 7.83215 5.40464 20.7959C8.12365 24.7867 11.5611 27.6804 16.1809 29.3915C16.2692 29.4239 16.2281 29.5578 16.1374 29.5334C7.85151 27.3037 1.86013 19.1448 0.997737 13.6037C-1.12861 -0.0565353 13.7135 -1.4184 22.9573 5.77865C23.4913 6.16146 22.136 5.1292 20.5201 4.39721Z" fill="current"/>
<path d="M43.9904 9.50634C43.9106 10.5105 43.4316 13.4281 40.5971 16.1689C37.9881 18.6915 32.9384 20.0613 38.3885 23.6259C41.0742 25.3822 39.615 28.8379 33.4615 27.0155C32.9517 26.8645 18.4658 23.073 13.8128 21.6904C13.8128 21.6904 20.8256 22.3851 29.4598 22.8645C33.7621 23.1036 32.2078 20.8978 33.2166 20.1603C25.8475 20.0906 21.6118 19.9402 21.6118 19.9402C21.6118 19.9402 26.4977 19.6736 33.7627 19.4296C34.2114 19.0724 34.6571 18.6878 35.0829 18.275C37.7716 15.6681 42.6376 13.0593 38.2482 13.5516C37.7456 13.6109 37.508 13.6769 37.517 13.5069L37.5176 13.2843C37.5225 12.5988 37.5467 12.5212 36.6915 12.6655C34.5785 13.0226 34.6499 12.8239 34.6499 13.469C34.6499 14.2071 34.9105 13.9631 32.9214 14.2805C18.4338 16.5896 8.46729 18.1741 8.46729 18.1741C8.46729 18.1741 12.8548 17.1088 23.2997 14.8963C27.6691 14.0591 25.9969 12.9633 28.3095 12.4508C44.499 8.87341 44.0327 8.98348 43.9904 9.50634Z" fill="current"/>
<path d="M12.0038 15.4975L10.7248 15.3281L10.7242 14.7692C10.7242 14.7349 10.6994 14.7062 10.6655 14.7019L9.93857 14.6047V11.6993H9.81761C9.81761 12.0362 9.81761 13.0043 9.81761 14.5875C8.8004 14.4518 9.08888 14.387 8.43694 14.7887C8.41578 14.8016 8.40852 14.826 8.40368 14.8511C8.36558 15.048 8.45509 15.0187 8.05957 14.96C7.99305 14.9502 7.92531 14.963 7.86665 14.9966L6.67285 15.6889L6.67829 17.8678C8.29543 17.5112 8.70304 17.4629 12.1157 16.6869L12.1145 15.6241C12.1145 15.5599 12.0673 15.5054 12.0038 15.4975ZM7.60418 16.0937C7.60298 16.1867 7.57455 16.1799 7.06353 16.4814C6.83856 16.6141 6.88089 16.194 6.87847 15.9898C6.87726 15.895 6.9081 15.9005 7.42457 15.5978C7.65317 15.462 7.60539 15.8901 7.60418 16.0937ZM8.51314 14.8847C8.64498 14.8077 8.8004 14.686 8.8004 14.8083C8.7998 15.1012 8.775 15.0719 8.48835 15.0346C8.48714 14.9251 8.48049 14.9043 8.51314 14.8847ZM9.2437 16.0913C9.2437 16.2778 9.04291 16.2038 8.50891 16.1378C8.3686 16.1206 8.40308 15.9971 8.40247 15.4993C8.40247 15.3104 8.60507 15.3868 9.14028 15.4577C9.2824 15.4761 9.24551 15.6033 9.2437 16.0913ZM9.50556 14.9746C9.50556 15.0547 9.41787 15.0229 9.18927 14.9948C9.12516 14.9869 9.14331 14.9226 9.14331 14.7196C9.14331 14.6383 9.22918 14.6707 9.46081 14.7019C9.52189 14.7098 9.50616 14.7612 9.50556 14.9746ZM9.72448 15.0229C9.72448 14.8542 9.7021 14.738 9.78314 14.7478C10.0492 14.7826 10.0879 14.774 10.0879 14.8346C10.0873 14.9979 10.1097 15.1165 10.0281 15.1073C9.77468 15.0749 9.72448 15.0841 9.72448 15.0229ZM10.5941 16.2778C10.5941 16.4643 10.3915 16.3903 9.85995 16.3243C9.71722 16.3065 9.75351 16.1763 9.7529 15.6858C9.7529 15.4975 9.95429 15.5721 10.4913 15.6436C10.6377 15.6638 10.5965 15.8039 10.5941 16.2778ZM10.6437 15.1287C10.6437 15.2088 10.5591 15.177 10.3274 15.1489C10.2663 15.1416 10.2821 15.0853 10.2815 14.8743C10.2815 14.7924 10.371 14.8254 10.5996 14.856C10.6607 14.8646 10.6449 14.9171 10.6437 15.1287ZM11.8883 16.4496C11.8883 16.6355 11.6887 16.5621 11.1541 16.4961C11.0078 16.4765 11.0477 16.3359 11.0471 15.8577C11.0471 15.6693 11.2485 15.7439 11.7855 15.8155C11.9319 15.8344 11.8907 15.9769 11.8883 16.4496Z" fill="current"/>
<path d="M37.0305 13.8662L35.2966 14.0809C35.1394 14.1004 34.9961 13.9873 34.9767 13.8277L34.967 13.75C34.9477 13.591 35.0595 13.4461 35.2174 13.4265L36.9512 13.2119C37.1085 13.1923 37.2518 13.3055 37.2712 13.4651L37.2808 13.5427C37.2996 13.7017 37.1877 13.8467 37.0305 13.8662Z" fill="current"/>
</svg>
