<svg width="187" height="40" viewBox="0 0 187 40" fill="none" xmlns="http://www.w3.org/2000/svg">
<path d="M173.784 18.7665L178.986 25.4382H176.041L172.059 20.2849L168.715 23.135V25.4382H166.256V14.5597H168.715V20.2724C170.874 18.3765 173.143 16.4075 175.305 14.5597H178.668L173.784 18.7665Z" fill="current"/>
<path d="M163.587 14.5597C163.587 23.7085 163.711 23.5267 163.219 24.2338C162.214 25.6744 159.912 25.8143 158.498 24.7995C157.805 24.3022 158.023 24.5353 154.943 16.9172C154.68 16.3826 153.655 16.4168 153.655 17.0897V25.4382H151.253C151.253 16.2272 151.129 16.4929 151.628 15.792C152.638 14.3794 155.048 14.2675 156.463 15.2994C157.181 15.8216 156.956 15.5807 159.992 23.1226C160.253 23.6914 161.184 23.724 161.184 22.9625V14.5597H163.587Z" fill="current"/>
<path d="M148.891 25.4382H146.432V14.5597H148.891V25.4382Z" fill="current"/>
<path d="M144.125 23.4816V25.4382H138.841C136.445 25.4382 133.981 23.9867 133.981 21.6307V14.5597H136.387C136.387 24.529 135.131 23.4816 144.125 23.4816Z" fill="current"/>
<path d="M127.802 20.0653C127.802 23.0382 123.354 23.0413 123.354 20.0653C123.354 17.0923 127.802 17.0877 127.802 20.0653Z" fill="current"/>
<path d="M113.749 14.5597C117.628 14.5597 119.205 17.7222 115.589 19.8591L108.931 23.334V25.4382H106.472V14.5597H113.749ZM114.891 17.0322C114.669 16.3158 113.437 16.496 108.777 16.496V20.9624C113.964 18.2164 115.135 17.8356 114.891 17.0322Z" fill="current"/>
<path d="M104.012 25.4382H101.553V14.5597H104.012V25.4382Z" fill="current"/>
<path d="M90.4883 25.4382H88.0293V14.5597H90.4883V18.4448H96.3285V14.5597H98.6338V25.4382H96.3285V20.3097H90.4883V25.4382Z" fill="current"/>
<path d="M83.5842 20.0343C85.7911 20.9294 86.1631 22.9622 84.8398 24.2909C83.4289 25.7098 81.4817 25.3617 75.4248 25.3617V23.4222C82.3039 23.4222 82.1825 23.4843 82.6605 23.2512C83.0816 23.0461 83.326 22.7073 83.1016 22.2939C82.8864 21.9007 82.6359 21.8821 77.4643 19.7002C75.3065 18.8097 74.9253 16.8655 76.2163 15.6021C77.5903 14.2562 79.5298 14.5795 84.9535 14.5795V16.519C78.8352 16.519 78.766 16.4568 78.3049 16.6837C77.9038 16.8826 77.7117 17.1826 77.9622 17.5493C78.1743 17.8586 78.1682 17.7902 83.5842 20.0343Z" fill="current"/>
<path d="M47.2972 33.7199C44.46 37.1401 42.003 37.7232 40.8402 38.9849C38.7833 41.2043 36.2653 39.0895 37.1129 39.0895C38.7112 39.0895 38.9116 39.1625 38.9116 38.8868C38.9116 36.9885 38.9878 36.9001 38.7111 36.9001H37.0672C36.9389 36.9001 36.8219 36.7542 36.9069 36.6569C37.8507 35.5768 39.1891 35.7179 40.5756 36.0909C42.197 35.5241 44.3253 34.384 45.4504 33.2244L47.2972 33.7199Z" fill="current"/>
<path d="M38.2181 38.7819H35.1684C35.0209 38.7819 34.9014 38.6611 34.9014 38.5119V37.4788C34.9014 37.3296 35.0209 37.2088 35.1684 37.2088H38.2181C38.3656 37.2088 38.4851 37.3296 38.4851 37.4788V38.5119C38.4851 38.6603 38.3656 38.7819 38.2181 38.7819Z" fill="current"/>
<path d="M31.6119 1.97826C12.6813 -5.47044 1.70234 9.36857 12.1095 25.5926C19.8319 37.6333 32.5389 38.9898 32.547 38.9947C34.7161 41.1881 36.9911 39.0904 36.1852 39.0904C34.1003 39.0093 34.5012 39.4958 34.4595 37.1273C34.4595 36.7672 34.5012 36.901 36.2157 36.8572C37.0465 36.8572 35.3424 34.9849 32.8132 36.1372C32.5694 36.2483 26.337 34.839 21.791 30.6086C13.3741 22.7756 11.1384 12.6753 16.3019 7.21489C20.4445 2.83536 33.6825 1.3474 44.5154 14.3879C44.8378 14.786 44.4344 14.7609 46.0631 14.3847C44.1401 10.4049 37.4185 4.26331 31.6119 1.97826ZM35.3007 4.61441C16.7903 -3.77733 3.54753 9.1691 15.2578 26.3588C18.8632 31.6506 23.4212 35.4877 29.547 37.7565C29.6641 37.7995 29.6096 37.9771 29.4893 37.9446C18.5023 34.9882 10.5578 24.1695 9.4143 16.8221C6.59479 -1.29119 26.2752 -3.09701 38.5324 6.44618C39.2405 6.95379 37.4434 5.58503 35.3007 4.61441Z" fill="current"/>
<path d="M66.4217 11.3891C66.3158 12.7205 65.6807 16.5892 61.9222 20.2235C58.4627 23.5684 51.7668 25.3848 58.9936 30.1113C62.5549 32.4402 60.6199 37.0224 52.4604 34.606C51.7844 34.4057 32.5763 29.3783 26.4064 27.5449C26.4064 27.5449 35.7054 28.4661 47.1542 29.1018C52.859 29.4189 50.7981 26.494 52.1357 25.5161C42.3644 25.4237 36.7478 25.2242 36.7478 25.2242C36.7478 25.2242 43.2265 24.8707 52.8598 24.5471C53.4548 24.0736 54.0458 23.5635 54.6104 23.0162C58.1757 19.5594 64.6278 16.1002 58.8076 16.753C58.1412 16.8316 57.826 16.9192 57.838 16.6938L57.8388 16.3986C57.8453 15.4896 57.8773 15.3867 56.7434 15.578C53.9416 16.0516 54.0362 15.788 54.0362 16.6435C54.0362 17.6222 54.3818 17.2987 51.7443 17.7196C32.5338 20.7814 19.3184 22.8824 19.3184 22.8824C19.3184 22.8824 25.1362 21.4698 38.986 18.5361C44.7798 17.426 42.5625 15.9729 45.629 15.2934C67.0961 10.5498 66.4778 10.6958 66.4217 11.3891Z" fill="current"/>
<path d="M24.0083 19.3332L22.3122 19.1086L22.3114 18.3675C22.3114 18.3221 22.2786 18.2839 22.2337 18.2783L21.2698 18.1493V14.2969H21.1094C21.1094 14.7437 21.1094 16.0273 21.1094 18.1266C19.7606 17.9466 20.1431 17.8607 19.2786 18.3934C19.2506 18.4104 19.2409 18.4429 19.2345 18.4761C19.184 18.7372 19.3027 18.6983 18.7782 18.6205C18.69 18.6075 18.6002 18.6245 18.5224 18.6691L16.9395 19.587L16.9467 22.4762C19.091 22.0034 19.6315 21.9394 24.1566 20.9104L24.155 19.5011C24.155 19.4159 24.0925 19.3438 24.0083 19.3332ZM18.1744 20.1238C18.1728 20.2471 18.1351 20.2382 17.4575 20.6379C17.1592 20.8139 17.2153 20.2568 17.2121 19.986C17.2105 19.8603 17.2514 19.8676 17.9362 19.4662C18.2393 19.2862 18.176 19.8538 18.1744 20.1238ZM19.3797 18.5207C19.5545 18.4186 19.7606 18.2572 19.7606 18.4194C19.7598 18.8078 19.7269 18.7689 19.3468 18.7194C19.3452 18.5742 19.3364 18.5467 19.3797 18.5207ZM20.3484 20.1206C20.3484 20.3679 20.0821 20.2698 19.374 20.1822C19.188 20.1595 19.2337 19.9957 19.2329 19.3357C19.2329 19.0851 19.5016 19.1865 20.2112 19.2805C20.3997 19.3048 20.3508 19.4735 20.3484 20.1206ZM20.6956 18.6399C20.6956 18.7461 20.5793 18.704 20.2762 18.6667C20.1912 18.6561 20.2153 18.571 20.2153 18.3018C20.2153 18.1939 20.3291 18.2369 20.6363 18.2783C20.7172 18.2888 20.6964 18.3569 20.6956 18.6399ZM20.9859 18.704C20.9859 18.4802 20.9562 18.3261 21.0637 18.3391C21.4165 18.3853 21.4678 18.374 21.4678 18.4542C21.467 18.6707 21.4967 18.828 21.3884 18.8159C21.0524 18.7729 20.9859 18.7851 20.9859 18.704ZM22.139 20.3679C22.139 20.6152 21.8704 20.5171 21.1655 20.4295C20.9763 20.406 21.0244 20.2333 21.0236 19.583C21.0236 19.3332 21.2906 19.4321 22.0027 19.527C22.1968 19.5538 22.1422 19.7395 22.139 20.3679ZM22.2048 18.8443C22.2048 18.9505 22.0925 18.9083 21.7854 18.871C21.7044 18.8613 21.7252 18.7867 21.7244 18.5069C21.7244 18.3983 21.8431 18.4421 22.1462 18.4826C22.2272 18.494 22.2064 18.5637 22.2048 18.8443ZM23.8551 20.5958C23.8551 20.8423 23.5905 20.745 22.8816 20.6574C22.6875 20.6314 22.7405 20.4449 22.7397 19.8108C22.7397 19.5611 23.0067 19.66 23.7188 19.7549C23.9129 19.78 23.8583 19.9689 23.8551 20.5958Z" fill="current"/>
<path d="M57.1941 17.1703L54.895 17.4549C54.6865 17.4808 54.4965 17.3308 54.4708 17.1192L54.458 17.0162C54.4323 16.8054 54.5807 16.6132 54.79 16.5872L57.089 16.3026C57.2975 16.2767 57.4876 16.4267 57.5132 16.6383L57.5261 16.7413C57.5509 16.9521 57.4026 17.1443 57.1941 17.1703Z" fill="current"/>
</svg>
