<svg width="28" height="28" viewBox="0 0 28 28" fill="none" xmlns="http://www.w3.org/2000/svg">
<path d="M14.0003 2.33331C11.525 2.33331 9.151 3.31664 7.40066 5.06698C5.65032 6.81732 4.66699 9.19129 4.66699 11.6666C4.66699 17.9666 12.892 25.0833 13.242 25.3866C13.4533 25.5674 13.7222 25.6667 14.0003 25.6667C14.2784 25.6667 14.5473 25.5674 14.7587 25.3866C15.167 25.0833 23.3337 17.9666 23.3337 11.6666C23.3337 9.19129 22.3503 6.81732 20.6 5.06698C18.8497 3.31664 16.4757 2.33331 14.0003 2.33331ZM14.0003 22.925C11.5153 20.5916 7.00033 15.5633 7.00033 11.6666C7.00033 9.81013 7.73782 8.02965 9.05058 6.7169C10.3633 5.40414 12.1438 4.66665 14.0003 4.66665C15.8568 4.66665 17.6373 5.40414 18.9501 6.7169C20.2628 8.02965 21.0003 9.81013 21.0003 11.6666C21.0003 15.5633 16.4853 20.6033 14.0003 22.925ZM14.0003 6.99998C13.0773 6.99998 12.1751 7.27367 11.4077 7.78645C10.6402 8.29923 10.0421 9.02807 9.68889 9.88079C9.33568 10.7335 9.24326 11.6718 9.42333 12.5771C9.60339 13.4823 10.0478 14.3138 10.7005 14.9665C11.3531 15.6191 12.1847 16.0636 13.0899 16.2436C13.9951 16.4237 14.9335 16.3313 15.7862 15.9781C16.6389 15.6249 17.3677 15.0267 17.8805 14.2593C18.3933 13.4919 18.667 12.5896 18.667 11.6666C18.667 10.429 18.1753 9.24198 17.3002 8.36681C16.425 7.49164 15.238 6.99998 14.0003 6.99998ZM14.0003 14C13.5388 14 13.0877 13.8631 12.704 13.6067C12.3203 13.3504 12.0212 12.9859 11.8446 12.5596C11.668 12.1332 11.6218 11.6641 11.7118 11.2114C11.8019 10.7588 12.0241 10.3431 12.3504 10.0167C12.6767 9.69041 13.0925 9.46818 13.5451 9.37815C13.9977 9.28811 14.4669 9.33432 14.8933 9.51093C15.3196 9.68753 15.684 9.9866 15.9404 10.3703C16.1968 10.754 16.3337 11.2052 16.3337 11.6666C16.3337 12.2855 16.0878 12.879 15.6502 13.3166C15.2127 13.7541 14.6192 14 14.0003 14Z" fill="current"/>
</svg>
