<svg width="14" height="14" viewBox="0 0 14 14" fill="none" xmlns="http://www.w3.org/2000/svg">
<path d="M6.99968 0.332031C5.68114 0.332031 4.3922 0.723024 3.29588 1.45557C2.19955 2.18811 1.34506 3.2293 0.840481 4.44747C0.335896 5.66565 0.203874 7.00609 0.461109 8.2993C0.718344 9.59251 1.35328 10.7804 2.28563 11.7127C3.21798 12.6451 4.40587 13.28 5.69908 13.5373C6.99228 13.7945 8.33273 13.6625 9.5509 13.1579C10.7691 12.6533 11.8103 11.7988 12.5428 10.7025C13.2753 9.60617 13.6663 8.31724 13.6663 6.9987C13.6663 6.12322 13.4939 5.25631 13.1589 4.44747C12.8238 3.63864 12.3328 2.90371 11.7137 2.28465C11.0947 1.6656 10.3597 1.17453 9.5509 0.839501C8.74206 0.50447 7.87516 0.332031 6.99968 0.332031ZM6.99968 12.332C5.94484 12.332 4.9137 12.0192 4.03664 11.4332C3.15957 10.8472 2.47599 10.0142 2.07232 9.03968C1.66865 8.06514 1.56303 6.99278 1.76882 5.95822C1.97461 4.92365 2.48256 3.97334 3.22844 3.22746C3.97432 2.48158 4.92463 1.97363 5.9592 1.76784C6.99376 1.56206 8.06612 1.66767 9.04066 2.07134C10.0152 2.47501 10.8481 3.15859 11.4342 4.03566C12.0202 4.91272 12.333 5.94386 12.333 6.9987C12.333 8.41319 11.7711 9.76974 10.7709 10.7699C9.77072 11.7701 8.41417 12.332 6.99968 12.332ZM9.66634 6.33203H4.33301C4.1562 6.33203 3.98663 6.40227 3.86161 6.52729C3.73658 6.65232 3.66634 6.82189 3.66634 6.9987C3.66634 7.17551 3.73658 7.34508 3.86161 7.4701C3.98663 7.59513 4.1562 7.66536 4.33301 7.66536H9.66634C9.84315 7.66536 10.0127 7.59513 10.1377 7.4701C10.2628 7.34508 10.333 7.17551 10.333 6.9987C10.333 6.82189 10.2628 6.65232 10.1377 6.52729C10.0127 6.40227 9.84315 6.33203 9.66634 6.33203Z" fill="#072D46"/>
</svg>
