<svg width="14" height="12" viewBox="0 0 14 12" fill="none" xmlns="http://www.w3.org/2000/svg">
<path d="M11.6663 2.66667H9.66634V2C9.66634 1.46957 9.45563 0.960859 9.08055 0.585787C8.70548 0.210714 8.19677 0 7.66634 0H6.33301C5.80258 0 5.29387 0.210714 4.91879 0.585787C4.54372 0.960859 4.33301 1.46957 4.33301 2V2.66667H2.33301C1.80257 2.66667 1.29387 2.87738 0.918794 3.25245C0.543722 3.62753 0.333008 4.13623 0.333008 4.66667V10C0.333008 10.5304 0.543722 11.0391 0.918794 11.4142C1.29387 11.7893 1.80257 12 2.33301 12H11.6663C12.1968 12 12.7055 11.7893 13.0806 11.4142C13.4556 11.0391 13.6663 10.5304 13.6663 10V4.66667C13.6663 4.13623 13.4556 3.62753 13.0806 3.25245C12.7055 2.87738 12.1968 2.66667 11.6663 2.66667ZM5.66634 2C5.66634 1.82319 5.73658 1.65362 5.8616 1.5286C5.98663 1.40357 6.1562 1.33333 6.33301 1.33333H7.66634C7.84315 1.33333 8.01272 1.40357 8.13775 1.5286C8.26277 1.65362 8.33301 1.82319 8.33301 2V2.66667H5.66634V2ZM1.66634 4.66667C1.66634 4.48986 1.73658 4.32029 1.8616 4.19526C1.98663 4.07024 2.1562 4 2.33301 4H2.99967C2.99967 4.35362 2.8592 4.69276 2.60915 4.94281C2.3591 5.19286 2.01996 5.33333 1.66634 5.33333V4.66667ZM2.33301 10.6667C2.1562 10.6667 1.98663 10.5964 1.8616 10.4714C1.73658 10.3464 1.66634 10.1768 1.66634 10V9.33333C2.01996 9.33333 2.3591 9.47381 2.60915 9.72386C2.8592 9.97391 2.99967 10.313 2.99967 10.6667H2.33301ZM12.333 10C12.333 10.1768 12.2628 10.3464 12.1377 10.4714C12.0127 10.5964 11.8432 10.6667 11.6663 10.6667H10.9997C10.9997 10.313 11.1402 9.97391 11.3902 9.72386C11.6402 9.47381 11.9794 9.33333 12.333 9.33333V10ZM12.333 8C11.6258 8 10.9475 8.28095 10.4474 8.78105C9.94729 9.28115 9.66634 9.95942 9.66634 10.6667H4.33301C4.33301 9.95942 4.05206 9.28115 3.55196 8.78105C3.05186 8.28095 2.37359 8 1.66634 8V6.66667C2.37359 6.66667 3.05186 6.38572 3.55196 5.88562C4.05206 5.38552 4.33301 4.70724 4.33301 4H9.66634C9.66634 4.70724 9.94729 5.38552 10.4474 5.88562C10.9475 6.38572 11.6258 6.66667 12.333 6.66667V8ZM12.333 5.33333C11.9794 5.33333 11.6402 5.19286 11.3902 4.94281C11.1402 4.69276 10.9997 4.35362 10.9997 4H11.6663C11.8432 4 12.0127 4.07024 12.1377 4.19526C12.2628 4.32029 12.333 4.48986 12.333 4.66667V5.33333ZM6.99967 5.33333C6.60411 5.33333 6.21743 5.45063 5.88853 5.67039C5.55964 5.89016 5.30329 6.20251 5.15192 6.56797C5.00054 6.93342 4.96093 7.33555 5.0381 7.72351C5.11527 8.11148 5.30576 8.46784 5.58546 8.74755C5.86517 9.02725 6.22153 9.21773 6.60949 9.2949C6.99746 9.37208 7.39959 9.33247 7.76504 9.18109C8.13049 9.02972 8.44285 8.77337 8.66261 8.44447C8.88238 8.11558 8.99967 7.7289 8.99967 7.33333C8.99967 6.8029 8.78896 6.29419 8.41389 5.91912C8.03882 5.54405 7.53011 5.33333 6.99967 5.33333ZM6.99967 8C6.86782 8 6.73893 7.9609 6.62929 7.88765C6.51966 7.81439 6.43421 7.71027 6.38375 7.58846C6.3333 7.46664 6.32009 7.33259 6.34582 7.20327C6.37154 7.07395 6.43504 6.95516 6.52827 6.86193C6.62151 6.76869 6.74029 6.7052 6.86961 6.67948C6.99894 6.65375 7.13298 6.66696 7.2548 6.71741C7.37661 6.76787 7.48073 6.85332 7.55399 6.96295C7.62724 7.07259 7.66634 7.20148 7.66634 7.33333C7.66634 7.51014 7.5961 7.67971 7.47108 7.80474C7.34606 7.92976 7.17649 8 6.99967 8Z" fill="#072D46"/>
</svg>
