<svg width="10" height="14" viewBox="0 0 10 14" fill="none" xmlns="http://www.w3.org/2000/svg">
<path d="M9.74667 0.472335C9.66826 0.406556 9.57576 0.359713 9.47634 0.335435C9.37691 0.311157 9.27323 0.310096 9.17333 0.332334L3.84 1.66567C3.69208 1.70217 3.56113 1.78823 3.46894 1.90953C3.37676 2.03083 3.3289 2.18004 3.33333 2.33233V9.23234C3.02184 9.08019 2.67999 9.00042 2.33333 8.999C1.87184 8.999 1.42072 9.13585 1.037 9.39224C0.653289 9.64863 0.35422 10.013 0.177615 10.4394C0.00101099 10.8658 -0.0451968 11.3349 0.0448354 11.7875C0.134868 12.2402 0.357096 12.6559 0.683419 12.9823C1.00974 13.3086 1.4255 13.5308 1.87812 13.6208C2.33075 13.7109 2.7999 13.6647 3.22626 13.4881C3.65262 13.3114 4.01704 13.0124 4.27343 12.6287C4.52982 12.245 4.66667 11.7938 4.66667 11.3323V6.18567L9.49333 4.999H9.54L9.66667 4.899L9.76667 4.83233C9.79904 4.80219 9.8281 4.76866 9.85333 4.73234C9.87935 4.70169 9.90172 4.66813 9.92 4.63233C9.94018 4.59495 9.95372 4.55435 9.96 4.51233C9.96696 4.4704 9.96696 4.4276 9.96 4.38567C9.96298 4.36802 9.96298 4.34999 9.96 4.33233V0.999001C9.96544 0.900919 9.94914 0.802847 9.91226 0.711801C9.87538 0.620754 9.81883 0.538982 9.74667 0.472335ZM2.33333 12.3323C2.13555 12.3323 1.94221 12.2737 1.77776 12.1638C1.61331 12.0539 1.48514 11.8977 1.40945 11.715C1.33377 11.5323 1.31396 11.3312 1.35255 11.1372C1.39113 10.9433 1.48637 10.7651 1.62623 10.6252C1.76608 10.4854 1.94426 10.3901 2.13824 10.3515C2.33222 10.313 2.53329 10.3328 2.71602 10.4085C2.89874 10.4841 3.05492 10.6123 3.1648 10.7768C3.27469 10.9412 3.33333 11.1346 3.33333 11.3323C3.33333 11.5976 3.22798 11.8519 3.04044 12.0394C2.8529 12.227 2.59855 12.3323 2.33333 12.3323ZM8.66667 3.81233L4.66667 4.81234V2.85233L8.66667 1.85233V3.81233Z" fill="#072D46"/>
</svg>
