<svg width="14" height="12" viewBox="0 0 14 12" fill="none" xmlns="http://www.w3.org/2000/svg">
<path d="M11.6663 2H9.66634V1.33333C9.66634 0.979711 9.52587 0.640573 9.27582 0.390524C9.02577 0.140476 8.68663 0 8.33301 0H5.66634C5.31272 0 4.97358 0.140476 4.72353 0.390524C4.47348 0.640573 4.33301 0.979711 4.33301 1.33333V2H2.33301C1.80257 2 1.29387 2.21071 0.918794 2.58579C0.543722 2.96086 0.333008 3.46957 0.333008 4V10C0.333008 10.5304 0.543722 11.0391 0.918794 11.4142C1.29387 11.7893 1.80257 12 2.33301 12H11.6663C12.1968 12 12.7055 11.7893 13.0806 11.4142C13.4556 11.0391 13.6663 10.5304 13.6663 10V4C13.6663 3.46957 13.4556 2.96086 13.0806 2.58579C12.7055 2.21071 12.1968 2 11.6663 2ZM5.66634 1.33333H8.33301V2H5.66634V1.33333ZM12.333 10C12.333 10.1768 12.2628 10.3464 12.1377 10.4714C12.0127 10.5964 11.8432 10.6667 11.6663 10.6667H2.33301C2.1562 10.6667 1.98663 10.5964 1.8616 10.4714C1.73658 10.3464 1.66634 10.1768 1.66634 10V6.26L4.78634 7.33333C4.85713 7.34294 4.92889 7.34294 4.99967 7.33333H8.99967C9.07197 7.332 9.14375 7.32078 9.21301 7.3L12.333 6.26V10ZM12.333 4.85333L8.89301 6H5.10634L1.66634 4.85333V4C1.66634 3.82319 1.73658 3.65362 1.8616 3.5286C1.98663 3.40357 2.1562 3.33333 2.33301 3.33333H11.6663C11.8432 3.33333 12.0127 3.40357 12.1377 3.5286C12.2628 3.65362 12.333 3.82319 12.333 4V4.85333Z" fill="#072D46"/>
</svg>
