<svg width="144" height="20" viewBox="0 0 144 20" fill="none" xmlns="http://www.w3.org/2000/svg">
<path d="M4.41477 15H1.11861V4.81818H4.51918C5.51681 4.81818 6.37358 5.02202 7.08949 5.42969C7.8054 5.83404 8.35393 6.41572 8.73509 7.17472C9.11956 7.9304 9.31179 8.83688 9.31179 9.89418C9.31179 10.9548 9.1179 11.8662 8.73011 12.6286C8.34564 13.3909 7.78883 13.9775 7.05966 14.3885C6.33049 14.7962 5.44886 15 4.41477 15ZM2.65483 13.6577H4.33026C5.10582 13.6577 5.75047 13.5118 6.2642 13.2202C6.77794 12.9252 7.16241 12.4993 7.41761 11.9425C7.67282 11.3823 7.80043 10.6996 7.80043 9.89418C7.80043 9.09541 7.67282 8.41761 7.41761 7.8608C7.16572 7.30398 6.78954 6.88139 6.28906 6.59304C5.78859 6.30469 5.16714 6.16051 4.42472 6.16051H2.65483V13.6577ZM14.394 15.1541C13.6416 15.1541 12.9937 14.9934 12.4501 14.6719C11.9099 14.3471 11.4922 13.8913 11.1973 13.3047C10.9056 12.7147 10.7598 12.0237 10.7598 11.2315C10.7598 10.4493 10.9056 9.75994 11.1973 9.16335C11.4922 8.56676 11.9032 8.10109 12.4302 7.76633C12.9605 7.43158 13.5803 7.2642 14.2896 7.2642C14.7205 7.2642 15.1381 7.33546 15.5424 7.47798C15.9468 7.6205 16.3097 7.84422 16.6312 8.14915C16.9527 8.45407 17.2063 8.85014 17.3919 9.33736C17.5775 9.82126 17.6703 10.4096 17.6703 11.1023V11.6293H11.6V10.5156H16.2136C16.2136 10.1245 16.1341 9.77817 15.975 9.47656C15.8159 9.17164 15.5922 8.93134 15.3038 8.75568C15.0188 8.58002 14.684 8.49219 14.2995 8.49219C13.8819 8.49219 13.5173 8.59493 13.2058 8.80043C12.8975 9.0026 12.6589 9.26776 12.4899 9.59588C12.3242 9.92069 12.2413 10.2737 12.2413 10.6548V11.5249C12.2413 12.0353 12.3308 12.4695 12.5098 12.8274C12.6921 13.1854 12.9456 13.4588 13.2704 13.6477C13.5952 13.8333 13.9747 13.9261 14.4089 13.9261C14.6906 13.9261 14.9475 13.8864 15.1795 13.8068C15.4115 13.724 15.612 13.6013 15.7811 13.4389C15.9501 13.2765 16.0794 13.076 16.1689 12.8374L17.5758 13.0909C17.4631 13.5052 17.2609 13.8681 16.9693 14.1797C16.6809 14.4879 16.318 14.7282 15.8805 14.9006C15.4463 15.0696 14.9508 15.1541 14.394 15.1541ZM25.0419 9.22798L23.6946 9.46662C23.6383 9.29427 23.5488 9.13021 23.4261 8.97443C23.3068 8.81865 23.1444 8.69105 22.9389 8.59162C22.7334 8.49219 22.4766 8.44247 22.1683 8.44247C21.7474 8.44247 21.3961 8.53693 21.1143 8.72585C20.8326 8.91146 20.6918 9.15175 20.6918 9.44673C20.6918 9.70194 20.7862 9.90743 20.9751 10.0632C21.1641 10.219 21.469 10.3466 21.8899 10.446L23.103 10.7244C23.8056 10.8868 24.3293 11.1371 24.674 11.4751C25.0187 11.8132 25.1911 12.2524 25.1911 12.7926C25.1911 13.25 25.0585 13.6577 24.7933 14.0156C24.5315 14.3703 24.1652 14.6487 23.6946 14.8509C23.2273 15.053 22.6854 15.1541 22.0689 15.1541C21.2138 15.1541 20.5161 14.9718 19.9759 14.6072C19.4356 14.2393 19.1042 13.7173 18.9815 13.0412L20.4183 12.8224C20.5078 13.197 20.6918 13.4804 20.9702 13.6726C21.2486 13.8615 21.6115 13.956 22.0589 13.956C22.5462 13.956 22.9356 13.8549 23.2273 13.6527C23.5189 13.4472 23.6648 13.197 23.6648 12.902C23.6648 12.6634 23.5753 12.4628 23.3963 12.3004C23.2206 12.138 22.9505 12.0154 22.5859 11.9325L21.2933 11.6491C20.5807 11.4867 20.0537 11.2282 19.7124 10.8736C19.3743 10.5189 19.2053 10.0698 19.2053 9.52628C19.2053 9.07552 19.3312 8.68111 19.5831 8.34304C19.835 8.00497 20.183 7.74148 20.6271 7.55256C21.0713 7.36032 21.58 7.2642 22.1534 7.2642C22.9787 7.2642 23.6283 7.44318 24.1023 7.80114C24.5762 8.15578 24.8894 8.63139 25.0419 9.22798ZM26.8255 15V7.36364H28.312V15H26.8255ZM27.5762 6.18537C27.3176 6.18537 27.0956 6.09919 26.91 5.92685C26.7277 5.75118 26.6365 5.54238 26.6365 5.30043C26.6365 5.05516 26.7277 4.84635 26.91 4.67401C27.0956 4.49834 27.3176 4.41051 27.5762 4.41051C27.8347 4.41051 28.0551 4.49834 28.2374 4.67401C28.423 4.84635 28.5158 5.05516 28.5158 5.30043C28.5158 5.54238 28.423 5.75118 28.2374 5.92685C28.0551 6.09919 27.8347 6.18537 27.5762 6.18537ZM33.5135 18.0227C32.907 18.0227 32.3849 17.9432 31.9474 17.7841C31.5133 17.625 31.1586 17.4145 30.8835 17.1527C30.6084 16.8909 30.4029 16.6042 30.267 16.2926L31.5447 15.7656C31.6342 15.9115 31.7536 16.0656 31.9027 16.228C32.0552 16.3937 32.2607 16.5346 32.5192 16.6506C32.781 16.7666 33.1174 16.8246 33.5284 16.8246C34.0919 16.8246 34.5575 16.687 34.9254 16.4119C35.2933 16.1402 35.4773 15.706 35.4773 15.1094V13.608H35.3828C35.2933 13.7704 35.1641 13.951 34.995 14.1499C34.8293 14.3487 34.6006 14.5211 34.3089 14.6669C34.0173 14.8127 33.6378 14.8857 33.1705 14.8857C32.5672 14.8857 32.0237 14.7448 31.5398 14.4631C31.0592 14.178 30.678 13.7588 30.3963 13.2053C30.1179 12.6484 29.9787 11.964 29.9787 11.152C29.9787 10.34 30.1162 9.64394 30.3913 9.06392C30.6697 8.4839 31.0509 8.03977 31.5348 7.73153C32.0187 7.41998 32.5672 7.2642 33.1804 7.2642C33.6544 7.2642 34.0372 7.34375 34.3288 7.50284C34.6205 7.65862 34.8475 7.84091 35.0099 8.04972C35.1757 8.25852 35.3033 8.44247 35.3928 8.60156H35.5021V7.36364H36.9588V15.169C36.9588 15.8253 36.8063 16.3639 36.5014 16.7848C36.1965 17.2057 35.7839 17.5173 35.2635 17.7195C34.7464 17.9216 34.1631 18.0227 33.5135 18.0227ZM33.4986 13.6527C33.9261 13.6527 34.2874 13.5533 34.5824 13.3544C34.8807 13.1522 35.1061 12.8639 35.2585 12.4893C35.4143 12.1115 35.4922 11.6591 35.4922 11.1321C35.4922 10.6184 35.416 10.166 35.2635 9.77486C35.111 9.38376 34.8873 9.07884 34.5923 8.86009C34.2973 8.63802 33.9328 8.52699 33.4986 8.52699C33.0511 8.52699 32.6783 8.64299 32.38 8.875C32.0817 9.10369 31.8563 9.41525 31.7038 9.80966C31.5547 10.2041 31.4801 10.6449 31.4801 11.1321C31.4801 11.6326 31.5563 12.0717 31.7088 12.4496C31.8613 12.8274 32.0866 13.1224 32.3849 13.3345C32.6866 13.5466 33.0578 13.6527 33.4986 13.6527ZM40.4389 10.4659V15H38.9524V7.36364H40.3793V8.60653H40.4737C40.6494 8.20218 40.9245 7.87737 41.299 7.6321C41.6768 7.38684 42.1525 7.2642 42.7259 7.2642C43.2462 7.2642 43.7019 7.37358 44.093 7.59233C44.4841 7.80777 44.7874 8.12926 45.0028 8.55682C45.2183 8.98437 45.326 9.51302 45.326 10.1428V15H43.8395V10.3217C43.8395 9.76823 43.6953 9.3357 43.407 9.02415C43.1186 8.70928 42.7225 8.55185 42.2188 8.55185C41.8741 8.55185 41.5675 8.62642 41.299 8.77557C41.0339 8.92472 40.8234 9.14347 40.6676 9.43182C40.5152 9.71686 40.4389 10.0616 40.4389 10.4659ZM51.144 15V4.81818H52.6305V8.60156H52.72C52.8062 8.44247 52.9305 8.25852 53.0929 8.04972C53.2553 7.84091 53.4806 7.65862 53.769 7.50284C54.0574 7.34375 54.4385 7.2642 54.9125 7.2642C55.5289 7.2642 56.0791 7.41998 56.563 7.73153C57.0469 8.04309 57.4264 8.49219 57.7015 9.07884C57.9799 9.66548 58.1191 10.3714 58.1191 11.1967C58.1191 12.022 57.9816 12.7296 57.7065 13.3196C57.4314 13.9062 57.0536 14.3587 56.573 14.6768C56.0924 14.9917 55.5439 15.1491 54.9274 15.1491C54.4634 15.1491 54.0839 15.0713 53.7889 14.9155C53.4972 14.7597 53.2685 14.5774 53.1028 14.3686C52.9371 14.1598 52.8095 13.9742 52.72 13.8118H52.5957V15H51.144ZM52.6007 11.1818C52.6007 11.7187 52.6786 12.1894 52.8343 12.5938C52.9901 12.9981 53.2155 13.3146 53.5105 13.5433C53.8055 13.7687 54.1667 13.8814 54.5943 13.8814C55.0384 13.8814 55.4096 13.7637 55.7079 13.5284C56.0062 13.2898 56.2316 12.9666 56.3841 12.5589C56.5398 12.1513 56.6177 11.6922 56.6177 11.1818C56.6177 10.678 56.5415 10.2256 56.389 9.82457C56.2399 9.42353 56.0145 9.10701 55.7129 8.875C55.4146 8.64299 55.0417 8.52699 54.5943 8.52699C54.1634 8.52699 53.7988 8.63802 53.5005 8.86009C53.2056 9.08215 52.9818 9.39205 52.8294 9.78977C52.6769 10.1875 52.6007 10.6515 52.6007 11.1818ZM60.4682 17.8636C60.2462 17.8636 60.044 17.8454 59.8617 17.8089C59.6794 17.7758 59.5435 17.7393 59.454 17.6996L59.812 16.4815C60.0837 16.5545 60.3257 16.5859 60.5378 16.576C60.7499 16.5661 60.9372 16.4865 61.0996 16.3374C61.2653 16.1882 61.4112 15.9446 61.5371 15.6065L61.7211 15.0994L58.927 7.36364H60.5179L62.4519 13.2898H62.5314L64.4654 7.36364H66.0613L62.9142 16.0192C62.7684 16.4169 62.5828 16.7533 62.3574 17.0284C62.132 17.3068 61.8636 17.5156 61.552 17.6548C61.2405 17.794 60.8792 17.8636 60.4682 17.8636Z" fill="#828C9C"/>
<path fill-rule="evenodd" clip-rule="evenodd" d="M79.0012 5.15625C76.0447 5.15625 73.9023 7.38428 73.9023 10.0836C73.9023 12.8258 76.0019 15.011 78.9583 15.011C81.9148 15.011 84.0571 12.783 84.0571 10.0836C84.0571 7.34143 81.9576 5.15625 79.0012 5.15625ZM78.9997 7.08594C80.6708 7.08594 81.8705 8.45703 81.8705 10.0852C81.8705 11.7562 80.6708 13.0845 78.9997 13.0845C77.3286 13.0845 76.1289 11.7134 76.1289 10.0852C76.1289 8.41419 77.3286 7.08594 78.9997 7.08594Z" fill="black"/>
<path fill-rule="evenodd" clip-rule="evenodd" d="M89.1128 7.25623H86.1992V5.32812H94.083V7.25623H91.1694V14.8401H89.07V7.25623H89.1128Z" fill="black"/>
<path fill-rule="evenodd" clip-rule="evenodd" d="M101.026 5.24219H99.0978L95.0273 14.8399H97.1697L98.0266 12.6975H102.054L102.911 14.8399H105.096L101.026 5.24219ZM100.039 7.76953L101.325 10.8545H98.7539L100.039 7.76953Z" fill="black"/>
<path fill-rule="evenodd" clip-rule="evenodd" d="M107.965 5.32813H110.064V9.48426L113.92 5.32812H116.448L112.549 9.35572L116.62 14.8401H114.092L111.135 10.7697L110.021 11.9265V14.8401H107.922V5.32813H107.965Z" fill="black"/>
<path fill-rule="evenodd" clip-rule="evenodd" d="M123.22 5.15625C120.263 5.15625 118.121 7.38428 118.121 10.0836C118.121 12.8258 120.221 15.011 123.177 15.011C126.133 15.011 128.276 12.783 128.276 10.0836C128.276 7.34143 126.176 5.15625 123.22 5.15625ZM123.175 7.08594C124.846 7.08594 126.046 8.45703 126.046 10.0852C126.046 11.7562 124.889 13.0845 123.175 13.0845C121.504 13.0845 120.305 11.7134 120.305 10.0852C120.305 8.41419 121.504 7.08594 123.175 7.08594Z" fill="black"/>
<path fill-rule="evenodd" clip-rule="evenodd" d="M133.329 11.1124L129.688 5.32812H132.13L134.401 9.14149L136.714 5.32812H139.114L135.429 11.0696V14.883H133.329V11.1124Z" fill="black"/>
<path fill-rule="evenodd" clip-rule="evenodd" d="M141.898 5.32812H143.998V14.883H141.898V5.32812Z" fill="black"/>
</svg>
