<svg width="71" height="11" viewBox="0 0 71 11" fill="none" xmlns="http://www.w3.org/2000/svg">
<path fill-rule="evenodd" clip-rule="evenodd" d="M6.00116 0.15625C3.0447 0.15625 0.902344 2.38428 0.902344 5.08363C0.902344 7.82582 3.00186 10.011 5.95831 10.011C8.91477 10.011 11.0571 7.78297 11.0571 5.08363C11.0571 2.34143 8.95762 0.15625 6.00116 0.15625ZM5.99969 2.08594C7.67075 2.08594 8.87048 3.45703 8.87048 5.08521C8.87048 6.75624 7.67075 8.08449 5.99969 8.08449C4.32864 8.08449 3.12891 6.71339 3.12891 5.08521C3.12891 3.41419 4.32864 2.08594 5.99969 2.08594Z" fill="black"/>
<path fill-rule="evenodd" clip-rule="evenodd" d="M16.1128 2.25623H13.1992V0.328125H21.083V2.25623H18.1694V9.8401H16.07V2.25623H16.1128Z" fill="black"/>
<path fill-rule="evenodd" clip-rule="evenodd" d="M28.026 0.242188H26.0978L22.0273 9.83986H24.1697L25.0266 7.69752H29.0543L29.9112 9.83986H32.0964L28.026 0.242188ZM27.0393 2.76953L28.3247 5.8545H25.7539L27.0393 2.76953Z" fill="black"/>
<path fill-rule="evenodd" clip-rule="evenodd" d="M34.9647 0.328125H37.0642V4.48426L40.9204 0.328125H43.4484L39.5493 4.35572L43.6198 9.8401H41.0918L38.1354 5.76966L37.0214 6.92653V9.8401H34.9219V0.328125H34.9647Z" fill="black"/>
<path fill-rule="evenodd" clip-rule="evenodd" d="M50.2199 0.15625C47.2634 0.15625 45.1211 2.38428 45.1211 5.08363C45.1211 7.82582 47.2206 10.011 50.177 10.011C53.1334 10.011 55.2758 7.78297 55.2758 5.08363C55.2758 2.34143 53.1763 0.15625 50.2199 0.15625ZM50.1754 2.08594C51.8464 2.08594 53.0462 3.45703 53.0462 5.08521C53.0462 6.75623 51.8893 8.08448 50.1754 8.08448C48.5044 8.08448 47.3047 6.71339 47.3047 5.08521C47.3047 3.41419 48.5044 2.08594 50.1754 2.08594Z" fill="black"/>
<path fill-rule="evenodd" clip-rule="evenodd" d="M60.3295 6.11244L56.6875 0.328125H59.1298L61.4006 4.14149L63.7144 0.328125H66.1138L62.429 6.06959V9.88295H60.3295V6.11244Z" fill="black"/>
<path fill-rule="evenodd" clip-rule="evenodd" d="M68.8984 0.328125H70.9979V9.88295H68.8984V0.328125Z" fill="black"/>
</svg>
