<svg width="21" height="20" viewBox="0 0 21 20" fill="none" xmlns="http://www.w3.org/2000/svg">
<path d="M18.3402 7.31817L4.34025 0.318175C3.78774 0.0431843 3.16386 -0.0547143 2.55368 0.0378269C1.9435 0.130368 1.37671 0.408845 0.930579 0.835291C0.484451 1.26174 0.1807 1.8154 0.0607402 2.42079C-0.0592199 3.02617 0.0104488 3.65383 0.260247 4.21817L2.66025 9.58818C2.7147 9.71801 2.74275 9.85739 2.74275 9.99818C2.74275 10.139 2.7147 10.2783 2.66025 10.4082L0.260247 15.7782C0.0569475 16.2349 -0.0289969 16.7352 0.0102245 17.2335C0.0494459 17.7319 0.21259 18.2126 0.484829 18.6319C0.757069 19.0512 1.12977 19.3958 1.56907 19.6344C2.00837 19.873 2.50033 19.9981 3.00025 19.9982C3.46848 19.9935 3.92974 19.8842 4.35025 19.6782L18.3502 12.6782C18.8468 12.4284 19.2643 12.0455 19.5559 11.5723C19.8476 11.099 20.0021 10.5541 20.0021 9.99818C20.0021 9.44228 19.8476 8.89732 19.5559 8.4241C19.2643 7.95087 18.8468 7.56799 18.3502 7.31817H18.3402ZM17.4502 10.8882L3.45025 17.8882C3.26641 17.9764 3.05998 18.0064 2.85863 17.974C2.65729 17.9416 2.47066 17.8485 2.32376 17.707C2.17686 17.5656 2.07673 17.3826 2.03678 17.1826C1.99683 16.9826 2.01897 16.7752 2.10025 16.5882L4.49025 11.2182C4.52119 11.1465 4.5479 11.073 4.57025 10.9982H11.4602C11.7255 10.9982 11.9798 10.8928 12.1674 10.7053C12.3549 10.5177 12.4602 10.2634 12.4602 9.99818C12.4602 9.73296 12.3549 9.47861 12.1674 9.29107C11.9798 9.10353 11.7255 8.99818 11.4602 8.99818H4.57025C4.5479 8.92334 4.52119 8.84988 4.49025 8.77818L2.10025 3.40817C2.01897 3.22114 1.99683 3.01372 2.03678 2.81374C2.07673 2.61376 2.17686 2.43078 2.32376 2.28932C2.47066 2.14787 2.65729 2.05471 2.85863 2.02233C3.05998 1.98995 3.26641 2.0199 3.45025 2.10818L17.4502 9.10818C17.614 9.19209 17.7515 9.31959 17.8475 9.47662C17.9435 9.63365 17.9943 9.81413 17.9943 9.99818C17.9943 10.1822 17.9435 10.3627 17.8475 10.5197C17.7515 10.6768 17.614 10.8043 17.4502 10.8882Z" fill="#199AF5"/>
</svg>
