<svg width="29" height="28" viewBox="0 0 29 28" fill="none" xmlns="http://www.w3.org/2000/svg">
<path d="M22.13 10.5L10.86 4.03666C10.2502 3.68451 9.558 3.50003 8.8538 3.50197C8.14959 3.5039 7.45845 3.69218 6.85055 4.04767C6.24266 4.40316 5.73969 4.91321 5.39271 5.526C5.04573 6.13879 4.86712 6.83249 4.87501 7.53666V20.51C4.87501 21.5682 5.29538 22.5831 6.04365 23.3313C6.79192 24.0796 7.80679 24.5 8.86501 24.5C9.56552 24.4988 10.2534 24.3137 10.86 23.9633L22.13 17.5C22.7356 17.1495 23.2383 16.646 23.5879 16.0398C23.9374 15.4337 24.1214 14.7463 24.1214 14.0467C24.1214 13.347 23.9374 12.6596 23.5879 12.0535C23.2383 11.4474 22.7356 10.9438 22.13 10.5933V10.5ZM20.9633 15.3883L9.69334 21.945C9.44074 22.0881 9.15535 22.1634 8.86501 22.1634C8.57466 22.1634 8.28927 22.0881 8.03667 21.945C7.78479 21.7996 7.57563 21.5904 7.43022 21.3385C7.28482 21.0866 7.20829 20.8008 7.20834 20.51V7.48999C7.20829 7.19914 7.28482 6.91339 7.43022 6.66149C7.57563 6.4096 7.78479 6.20042 8.03667 6.05499C8.29031 5.91401 8.57485 5.83786 8.86501 5.83332C9.15496 5.83927 9.43917 5.91533 9.69334 6.05499L20.9633 12.565C21.2153 12.7104 21.4246 12.9195 21.5701 13.1714C21.7156 13.4233 21.7922 13.7091 21.7922 14C21.7922 14.2909 21.7156 14.5767 21.5701 14.8286C21.4246 15.0805 21.2153 15.2896 20.9633 15.435V15.3883Z" fill="current"/>
</svg>
