<svg width="22" height="22" viewBox="0 0 22 22" fill="none" xmlns="http://www.w3.org/2000/svg">
<path d="M19.9006 18.5992L16.4998 15.2259C17.8199 13.5799 18.4592 11.4907 18.2862 9.38789C18.1132 7.28506 17.1412 5.32842 15.5698 3.92029C13.9985 2.51217 11.9474 1.75959 9.8383 1.8173C7.72916 1.87501 5.72229 2.73863 4.23034 4.23058C2.73839 5.72253 1.87477 7.7294 1.81705 9.83855C1.75934 11.9477 2.51192 13.9988 3.92005 15.5701C5.32817 17.1414 7.28482 18.1135 9.38765 18.2864C11.4905 18.4594 13.5797 17.8201 15.2256 16.5L18.599 19.8734C18.6842 19.9593 18.7856 20.0275 18.8973 20.074C19.009 20.1206 19.1288 20.1445 19.2498 20.1445C19.3708 20.1445 19.4906 20.1206 19.6023 20.074C19.714 20.0275 19.8154 19.9593 19.9006 19.8734C20.0658 19.7024 20.1582 19.474 20.1582 19.2363C20.1582 18.9986 20.0658 18.7701 19.9006 18.5992ZM10.0831 16.5C8.81403 16.5 7.57343 16.1237 6.51821 15.4186C5.463 14.7136 4.64056 13.7114 4.1549 12.5389C3.66923 11.3664 3.54216 10.0763 3.78975 8.83154C4.03734 7.58683 4.64847 6.44349 5.54586 5.5461C6.44324 4.64871 7.58658 4.03758 8.83129 3.79C10.076 3.54241 11.3662 3.66948 12.5387 4.15514C13.7112 4.6408 14.7133 5.46324 15.4184 6.51846C16.1235 7.57367 16.4998 8.81427 16.4998 10.0834C16.4998 11.7852 15.8237 13.4173 14.6204 14.6206C13.417 15.824 11.7849 16.5 10.0831 16.5Z" fill="current"/>
</svg>
