<svg width="10" height="6" viewBox="0 0 10 6" fill="none" xmlns="http://www.w3.org/2000/svg">
<path d="M9.16707 0.640765C9.01094 0.485555 8.79973 0.398438 8.57957 0.398438C8.35942 0.398438 8.14821 0.485555 7.99207 0.640765L5.0004 3.59076L2.0504 0.640765C1.89427 0.485555 1.68306 0.398438 1.4629 0.398438C1.24275 0.398438 1.03154 0.485555 0.875405 0.640765C0.797298 0.718234 0.735302 0.810401 0.692995 0.911951C0.650688 1.0135 0.628906 1.12242 0.628906 1.23243C0.628906 1.34244 0.650688 1.45136 0.692995 1.55291C0.735302 1.65446 0.797298 1.74663 0.875405 1.8241L4.40874 5.35743C4.48621 5.43554 4.57837 5.49753 4.67992 5.53984C4.78147 5.58215 4.89039 5.60393 5.0004 5.60393C5.11041 5.60393 5.21934 5.58215 5.32089 5.53984C5.42243 5.49753 5.5146 5.43554 5.59207 5.35743L9.16707 1.8241C9.24518 1.74663 9.30717 1.65446 9.34948 1.55291C9.39179 1.45136 9.41357 1.34244 9.41357 1.23243C9.41357 1.12242 9.39179 1.0135 9.34948 0.911951C9.30717 0.810401 9.24518 0.718234 9.16707 0.640765Z" fill="#199AF5"/>
</svg>
