<svg width="22" height="22" viewBox="0 0 22 22" fill="none" xmlns="http://www.w3.org/2000/svg">
<path d="M19.5252 9.23996C19.2676 8.93072 18.9453 8.68179 18.581 8.51072C18.2167 8.33966 17.8193 8.25065 17.4168 8.24996H13.2368L13.7502 6.93913C13.9637 6.36519 14.0348 5.74801 13.9574 5.14055C13.88 4.53309 13.6564 3.95348 13.3057 3.45142C12.9551 2.94936 12.4879 2.53986 11.9443 2.25802C11.4006 1.97619 10.7967 1.83045 10.1843 1.83329C10.008 1.83366 9.83552 1.88488 9.68756 1.98081C9.53961 2.07673 9.42246 2.2133 9.35016 2.37413L6.73766 8.24996H4.5835C3.85415 8.24996 3.15468 8.53969 2.63895 9.05542C2.12323 9.57114 1.8335 10.2706 1.8335 11V17.4166C1.8335 18.146 2.12323 18.8454 2.63895 19.3612C3.15468 19.8769 3.85415 20.1666 4.5835 20.1666H16.2527C16.896 20.1664 17.5189 19.9407 18.013 19.5286C18.507 19.1166 18.841 18.5444 18.9568 17.9116L20.121 11.495C20.193 11.0984 20.177 10.6908 20.074 10.3012C19.971 9.91148 19.7837 9.5492 19.5252 9.23996ZM6.41683 18.3333H4.5835C4.34038 18.3333 4.10722 18.2367 3.93531 18.0648C3.76341 17.8929 3.66683 17.6597 3.66683 17.4166V11C3.66683 10.7568 3.76341 10.5237 3.93531 10.3518C4.10722 10.1799 4.34038 10.0833 4.5835 10.0833H6.41683V18.3333ZM18.3335 11.165L17.1693 17.5816C17.1303 17.7952 17.0167 17.9879 16.8489 18.1256C16.681 18.2632 16.4697 18.3368 16.2527 18.3333H8.25016V9.35913L10.7435 3.74913C11.0001 3.82395 11.2385 3.95117 11.4435 4.12274C11.6485 4.29432 11.8157 4.50654 11.9346 4.74599C12.0535 4.98545 12.1214 5.24695 12.1341 5.51399C12.1468 5.78102 12.1041 6.04779 12.0085 6.29746L11.5227 7.60829C11.4191 7.88536 11.3842 8.18336 11.4208 8.47686C11.4574 8.77036 11.5645 9.05065 11.7329 9.2938C11.9013 9.53696 12.126 9.73575 12.3879 9.87323C12.6498 10.0107 12.9411 10.0828 13.2368 10.0833H17.4168C17.5515 10.0831 17.6846 10.1125 17.8066 10.1696C17.9285 10.2266 18.0365 10.3098 18.1227 10.4133C18.211 10.5153 18.2757 10.6356 18.3121 10.7656C18.3485 10.8955 18.3558 11.0319 18.3335 11.165Z" fill="current"/>
</svg>
