<svg width="20" height="20" viewBox="0 0 20 20" fill="none" xmlns="http://www.w3.org/2000/svg">
<path d="M19 4.65738C18.3306 4.93846 17.6174 5.12477 16.8737 5.21523C17.6388 4.778 18.2226 4.09092 18.4971 3.26277C17.7839 3.66985 16.9964 3.95738 16.1571 4.11785C15.4799 3.42754 14.5146 3 13.4616 3C11.4186 3 9.77388 4.58738 9.77388 6.53338C9.77388 6.81338 9.79862 7.08262 9.85938 7.33892C6.7915 7.19569 4.07687 5.78815 2.25325 3.644C1.93488 4.17277 1.74813 4.778 1.74813 5.42954C1.74813 6.65292 2.40625 7.73738 3.38725 8.36523C2.79437 8.35446 2.21275 8.18969 1.72 7.93015C1.72 7.94092 1.72 7.95492 1.72 7.96892C1.72 9.68554 2.99913 11.1114 4.6765 11.4398C4.37613 11.5185 4.04875 11.5562 3.709 11.5562C3.47275 11.5562 3.23425 11.5432 3.01038 11.4958C3.4885 12.8948 4.84525 13.9232 6.4585 13.9566C5.203 14.8968 3.60888 15.4632 1.88313 15.4632C1.5805 15.4632 1.29025 15.4503 1 15.4148C2.63462 16.4238 4.57187 17 6.661 17C13.4515 17 17.164 11.6154 17.164 6.948C17.164 6.79185 17.1584 6.64108 17.1505 6.49138C17.8829 5.99385 18.4982 5.37246 19 4.65738Z" fill="#072D46"/>
</svg>
