<svg width="20" height="20" viewBox="0 0 20 20" fill="none" xmlns="http://www.w3.org/2000/svg">
<path d="M8.09167 5.59194L9.16667 4.50861V14.1669C9.16667 14.388 9.25446 14.5999 9.41074 14.7562C9.56702 14.9125 9.77899 15.0003 10 15.0003C10.221 15.0003 10.433 14.9125 10.5893 14.7562C10.7455 14.5999 10.8333 14.388 10.8333 14.1669V4.50861L11.9083 5.59194C11.9858 5.67005 12.078 5.73204 12.1795 5.77435C12.2811 5.81666 12.39 5.83844 12.5 5.83844C12.61 5.83844 12.7189 5.81666 12.8205 5.77435C12.922 5.73204 13.0142 5.67005 13.0917 5.59194C13.1698 5.51447 13.2318 5.4223 13.2741 5.32076C13.3164 5.21921 13.3382 5.11028 13.3382 5.00027C13.3382 4.89026 13.3164 4.78134 13.2741 4.67979C13.2318 4.57824 13.1698 4.48608 13.0917 4.40861L10.5917 1.90861C10.5142 1.8305 10.422 1.76851 10.3205 1.7262C10.2189 1.68389 10.11 1.66211 10 1.66211C9.88999 1.66211 9.78107 1.68389 9.67952 1.7262C9.57797 1.76851 9.4858 1.8305 9.40833 1.90861L6.90833 4.40861C6.75141 4.56553 6.66326 4.77836 6.66326 5.00027C6.66326 5.22219 6.75141 5.43502 6.90833 5.59194C7.06525 5.74886 7.27808 5.83702 7.5 5.83702C7.72192 5.83702 7.93475 5.74886 8.09167 5.59194ZM15 7.50028H13.3333C13.1123 7.50028 12.9004 7.58807 12.7441 7.74435C12.5878 7.90063 12.5 8.11259 12.5 8.33361C12.5 8.55462 12.5878 8.76658 12.7441 8.92286C12.9004 9.07914 13.1123 9.16694 13.3333 9.16694H15C15.221 9.16694 15.433 9.25474 15.5893 9.41102C15.7455 9.5673 15.8333 9.77926 15.8333 10.0003V15.8336C15.8333 16.0546 15.7455 16.2666 15.5893 16.4229C15.433 16.5791 15.221 16.6669 15 16.6669H5C4.77899 16.6669 4.56702 16.5791 4.41074 16.4229C4.25446 16.2666 4.16667 16.0546 4.16667 15.8336V10.0003C4.16667 9.77926 4.25446 9.5673 4.41074 9.41102C4.56702 9.25474 4.77899 9.16694 5 9.16694H6.66667C6.88768 9.16694 7.09964 9.07914 7.25592 8.92286C7.4122 8.76658 7.5 8.55462 7.5 8.33361C7.5 8.11259 7.4122 7.90063 7.25592 7.74435C7.09964 7.58807 6.88768 7.50028 6.66667 7.50028H5C4.33696 7.50028 3.70107 7.76367 3.23223 8.23251C2.76339 8.70135 2.5 9.33723 2.5 10.0003V15.8336C2.5 16.4966 2.76339 17.1325 3.23223 17.6014C3.70107 18.0702 4.33696 18.3336 5 18.3336H15C15.663 18.3336 16.2989 18.0702 16.7678 17.6014C17.2366 17.1325 17.5 16.4966 17.5 15.8336V10.0003C17.5 9.33723 17.2366 8.70135 16.7678 8.23251C16.2989 7.76367 15.663 7.50028 15 7.50028Z" fill="current"/>
</svg>
