<svg width="24" height="24" xmlns="http://www.w3.org/2000/svg" enable-background="new 0 0 24 24" viewBox="0 0 24 24" id="volume-mute"><path fill="current" d="M12.4,4.1c-0.3-0.2-0.8-0.1-1.1,0.1L6.6,8H3C2.4,8,2,8.4,2,9v6c0,0.6,0.4,1,1,1h3.6l4.7,3.8c0.4,0.3,1.1,0.3,1.4-0.2c0.1-0.2,0.2-0.4,0.2-0.6V5C13,4.6,12.8,4.3,12.4,4.1z M19.9,12l1.8-1.8c0.4-0.4,0.4-1,0-1.4c-0.4-0.4-1-0.4-1.4,0l-1.8,1.8l-1.8-1.8c-0.4-0.4-1-0.4-1.4,0c-0.4,0.4-0.4,1,0,1.4l1.8,1.8l-1.8,1.8c-0.4,0.4-0.4,1,0,1.4c0.4,0.4,1,0.4,1.4,0c0,0,0,0,0,0l1.8-1.8l1.8,1.8c0.4,0.4,1,0.4,1.4,0c0.4-0.4,0.4-1,0-1.4L19.9,12z" /></svg>