<svg width="24" height="24" xmlns="http://www.w3.org/2000/svg" enable-background="new 0 0 24 24" viewBox="0 0 24 24" id="volume"><path fill="current" d="M12.4,4.1c-0.3-0.2-0.8-0.1-1.1,0.1L6.6,8H3C2.4,8,2,8.4,2,9v6c0,0.6,0.4,1,1,1h3.7l4.7,3.8c0.4,0.3,1.1,0.3,1.4-0.2c0.1-0.2,0.2-0.4,0.2-0.6V5C13,4.6,12.8,4.3,12.4,4.1z M17.1,9.4c-0.1-0.1-0.2-0.2-0.2-0.3c-0.4-0.4-1-0.4-1.4,0s-0.4,1,0,1.4C15.8,11,16,11.5,16,12c0,0.6-0.3,1.2-0.7,1.5c-0.4,0.4-0.5,1-0.1,1.4s1,0.5,1.4,0.1C18.3,13.6,18.5,11.1,17.1,9.4z M20.1,6.9c-0.1-0.2-0.3-0.3-0.5-0.5c-0.4-0.4-1-0.4-1.4,0c-0.4,0.4-0.4,1,0,1.4c2.3,2.3,2.3,6.1,0,8.5c-0.1,0.1-0.3,0.2-0.4,0.4c-0.4,0.4-0.5,1-0.1,1.4s1,0.5,1.4,0.1c0,0,0,0,0,0C22.5,15.3,23,10.2,20.1,6.9z" /></svg>